<?xml version="1.0" encoding="UTF-8"?>
<svg width="1046px" height="428px" viewBox="0 0 1046 428" version="1.1" xmlns="http://www.w3.org/2000/svg" xmlns:xlink="http://www.w3.org/1999/xlink">
    <title>Group 44</title>
    <g id="Page-1" stroke="none" stroke-width="1" fill="none" fill-rule="evenodd" opacity="0.547851562">
        <g id="Homepage---V2" transform="translate(-146.000000, -203.000000)" stroke="#255883" stroke-width="2">
            <g id="Group-21" transform="translate(284.000000, 307.000000)">
                <g id="Group-22" transform="translate(0.000000, 14.000000)">
                    <g id="Group-44" transform="translate(-137.000000, -117.000000)">
                        <g id="Group-9" transform="translate(879.000000, 152.000000)">
                            <path d="M66.7546678,76.4715103 C80.8379289,76.4715103 88.7599414,73.0445512 78.8008651,55.9531939 C68.8417887,38.8618367 56.932008,35.4348071 42.8487469,35.4348071 C28.7654858,35.4348071 39.0919246,45.1712879 42.8487469,56.8648548 C46.6055692,68.5584217 52.6714067,76.4715103 66.7546678,76.4715103 Z" id="Oval" opacity="0.223423549"></path>
                            <path d="M71.0584119,86.3648548 C93.3655638,86.3648548 105.913619,80.9367301 90.1389608,53.8649106 C80.1344375,36.6955592 65.760526,20.2408559 53.1803641,16.3463142 C45.924723,14.1001271 36.587184,22.6444646 28.4275603,22.6445761 C6.12040842,22.6445761 27.2420678,36.7869332 33.1926786,55.308934 C39.1432894,73.8309348 48.7512599,86.3648548 71.0584119,86.3648548 Z" id="Oval" opacity="0.223423549"></path>
                            <path d="M72.5488881,95.3648548 C104.266063,95.3648548 122.107375,88.1165395 99.6783535,51.9668387 C85.4535338,29.0401597 71.6006868,5.66034311 53.713724,0.459860823 C43.3973717,-2.53953087 20.9033016,9.88483732 11.674501,15.9700527 C-17.8456269,35.4348071 16.9128077,42.0391641 25.3736172,66.7720708 C33.8344268,91.5049775 40.8317132,95.3648548 72.5488881,95.3648548 Z" id="Oval" opacity="0.223423549"></path>
                        </g>
                        <g id="Group-9" transform="translate(469.000000, 112.000000)">
                            <path d="M66.7546678,76.4715103 C80.8379289,76.4715103 88.7599414,73.0445512 78.8008651,55.9531939 C68.8417887,38.8618367 56.932008,35.4348071 42.8487469,35.4348071 C28.7654858,35.4348071 39.0919246,45.1712879 42.8487469,56.8648548 C46.6055692,68.5584217 52.6714067,76.4715103 66.7546678,76.4715103 Z" id="Oval" opacity="0.223423549"></path>
                            <path d="M71.0584119,86.3648548 C93.3655638,86.3648548 105.913619,80.9367301 90.1389608,53.8649106 C80.1344375,36.6955592 65.760526,20.2408559 53.1803641,16.3463142 C45.924723,14.1001271 36.587184,22.6444646 28.4275603,22.6445761 C6.12040842,22.6445761 27.2420678,36.7869332 33.1926786,55.308934 C39.1432894,73.8309348 48.7512599,86.3648548 71.0584119,86.3648548 Z" id="Oval" opacity="0.223423549"></path>
                            <path d="M72.5488881,95.3648548 C104.266063,95.3648548 122.107375,88.1165395 99.6783535,51.9668387 C85.4535338,29.0401597 71.6006868,5.66034311 53.713724,0.459860823 C43.3973717,-2.53953087 20.9033016,9.88483732 11.674501,15.9700527 C-17.8456269,35.4348071 16.9128077,42.0391641 25.3736172,66.7720708 C33.8344268,91.5049775 40.8317132,95.3648548 72.5488881,95.3648548 Z" id="Oval" opacity="0.223423549"></path>
                        </g>
                        <g id="Group-9-Copy" transform="translate(934.000000, 76.000000)">
                            <path d="M66.7546678,76.4715103 C80.8379289,76.4715103 88.7599414,73.0445512 78.8008651,55.9531939 C68.8417887,38.8618367 56.932008,35.4348071 42.8487469,35.4348071 C28.7654858,35.4348071 39.0919246,45.1712879 42.8487469,56.8648548 C46.6055692,68.5584217 52.6714067,76.4715103 66.7546678,76.4715103 Z" id="Oval" opacity="0.223423549"></path>
                            <path d="M71.0584119,86.3648548 C93.3655638,86.3648548 105.913619,80.9367301 90.1389608,53.8649106 C80.1344375,36.6955592 65.760526,20.2408559 53.1803641,16.3463142 C45.924723,14.1001271 36.587184,22.6444646 28.4275603,22.6445761 C6.12040842,22.6445761 27.2420678,36.7869332 33.1926786,55.308934 C39.1432894,73.8309348 48.7512599,86.3648548 71.0584119,86.3648548 Z" id="Oval" opacity="0.223423549"></path>
                            <path d="M72.5488881,95.3648548 C104.266063,95.3648548 122.107375,88.1165395 99.6783535,51.9668387 C85.4535338,29.0401597 71.6006868,5.66034311 53.713724,0.459860823 C43.3973717,-2.53953087 20.9033016,9.88483732 11.674501,15.9700527 C-17.8456269,35.4348071 16.9128077,42.0391641 25.3736172,66.7720708 C33.8344268,91.5049775 40.8317132,95.3648548 72.5488881,95.3648548 Z" id="Oval" opacity="0.223423549"></path>
                        </g>
                        <g id="Group-9-Copy-2" transform="translate(789.000000, 46.000000)">
                            <path d="M66.7546678,76.4715103 C80.8379289,76.4715103 88.7599414,73.0445512 78.8008651,55.9531939 C68.8417887,38.8618367 56.932008,35.4348071 42.8487469,35.4348071 C28.7654858,35.4348071 39.0919246,45.1712879 42.8487469,56.8648548 C46.6055692,68.5584217 52.6714067,76.4715103 66.7546678,76.4715103 Z" id="Oval" opacity="0.223423549"></path>
                            <path d="M71.0584119,86.3648548 C93.3655638,86.3648548 105.913619,80.9367301 90.1389608,53.8649106 C80.1344375,36.6955592 65.760526,20.2408559 53.1803641,16.3463142 C45.924723,14.1001271 36.587184,22.6444646 28.4275603,22.6445761 C6.12040842,22.6445761 27.2420678,36.7869332 33.1926786,55.308934 C39.1432894,73.8309348 48.7512599,86.3648548 71.0584119,86.3648548 Z" id="Oval" opacity="0.223423549"></path>
                            <path d="M72.5488881,95.3648548 C104.266063,95.3648548 122.107375,88.1165395 99.6783535,51.9668387 C85.4535338,29.0401597 71.6006868,5.66034311 53.713724,0.459860823 C43.3973717,-2.53953087 20.9033016,9.88483732 11.674501,15.9700527 C-17.8456269,35.4348071 16.9128077,42.0391641 25.3736172,66.7720708 C33.8344268,91.5049775 40.8317132,95.3648548 72.5488881,95.3648548 Z" id="Oval" opacity="0.223423549"></path>
                        </g>
                        <g id="Group-9-Copy-3" transform="translate(711.000000, 123.000000)">
                            <path d="M85.8472096,98 C103.899402,98 114.053988,93.5739906 101.288254,71.5000455 C88.5225209,49.4261003 73.2563375,45 55.2041455,45 C37.1519536,45 50.3885793,57.5749255 55.2041455,72.6774799 C60.0197118,87.7800344 67.7950176,98 85.8472096,98 Z" id="Oval" opacity="0.223423549"></path>
                            <path d="M91.4852819,111 C120.087377,111 136.176417,104.060124 115.950246,69.448708 C103.122507,47.4976323 84.6923647,26.4602368 68.5621572,21.4810516 C59.2590181,18.6092936 47.2864822,29.5332589 36.8242621,29.5334014 C8.22216691,29.5334014 35.3042307,47.6144544 42.9340678,71.2948969 C50.563905,94.9753395 62.8831867,111 91.4852819,111 Z" id="Oval" opacity="0.223423549"></path>
                            <path d="M93.2371343,122 C133.998868,122 156.927859,112.72725 128.102915,66.4810357 C109.821705,37.1509975 92.0185412,7.24126157 69.0308816,0.588298703 C55.7726891,-3.24881495 26.8641462,12.6456456 15.0036348,20.4304451 C-22.9345364,45.3316526 21.7357118,53.7805886 32.6092297,85.421329 C43.4827476,117.062069 52.4754001,122 93.2371343,122 Z" id="Oval" opacity="0.223423549"></path>
                        </g>
                        <g id="Group-9-Copy-4" transform="translate(540.000000, 0.000000)">
                            <path d="M106.645704,122 C129.136959,122 141.788575,116.571875 125.883727,89.5000558 C109.978878,62.4282363 90.9587155,57 68.46746,57 C45.9762045,57 62.4677381,72.4220784 68.46746,90.9440792 C74.4671819,109.46608 84.1544482,122 106.645704,122 Z" id="Oval" opacity="0.223423549"></path>
                            <path d="M112.521388,138 C147.920021,138 167.8322,129.363709 142.79981,86.2917255 C126.923895,58.9748314 104.114313,32.7949614 84.1511847,26.5986421 C72.6373987,23.0248988 57.8199037,36.6191666 44.8716115,36.619344 C9.47297885,36.619344 42.9903845,59.1202099 52.4332523,88.5892051 C61.8761201,118.0582 77.1227558,138 112.521388,138 Z" id="Oval" opacity="0.223423549"></path>
                            <path d="M115.719847,152 C166.310652,152 194.76862,140.447065 158.992979,82.8288314 C136.303535,46.2864887 114.207409,9.02189967 85.676626,0.732962318 C69.2214226,-4.04770387 33.3420254,15.7552305 18.6215325,25.454325 C-28.4648501,56.4787803 26.9769473,67.0053235 40.4724482,106.426574 C53.9679492,145.847824 65.1290427,152 115.719847,152 Z" id="Oval" opacity="0.223423549"></path>
                        </g>
                        <g id="Group-9-Copy-5" transform="translate(584.000000, 184.000000)">
                            <path d="M106.645704,122 C129.136959,122 141.788575,116.571875 125.883727,89.5000558 C109.978878,62.4282363 90.9587155,57 68.46746,57 C45.9762045,57 62.4677381,72.4220784 68.46746,90.9440792 C74.4671819,109.46608 84.1544482,122 106.645704,122 Z" id="Oval" opacity="0.223423549"></path>
                            <path d="M112.521388,138 C147.920021,138 167.8322,129.363709 142.79981,86.2917255 C126.923895,58.9748314 104.114313,32.7949614 84.1511847,26.5986421 C72.6373987,23.0248988 57.8199037,36.6191666 44.8716115,36.619344 C9.47297885,36.619344 42.9903845,59.1202099 52.4332523,88.5892051 C61.8761201,118.0582 77.1227558,138 112.521388,138 Z" id="Oval" opacity="0.223423549"></path>
                            <path d="M115.719847,152 C166.310652,152 194.76862,140.447065 158.992979,82.8288314 C136.303535,46.2864887 114.207409,9.02189967 85.676626,0.732962318 C69.2214226,-4.04770387 33.3420254,15.7552305 18.6215325,25.454325 C-28.4648501,56.4787803 26.9769473,67.0053235 40.4724482,106.426574 C53.9679492,145.847824 65.1290427,152 115.719847,152 Z" id="Oval" opacity="0.223423549"></path>
                        </g>
                        <g id="Group-9-Copy" transform="translate(394.000000, 166.000000)">
                            <path d="M66.7546678,76.4715103 C80.8379289,76.4715103 88.7599414,73.0445512 78.8008651,55.9531939 C68.8417887,38.8618367 56.932008,35.4348071 42.8487469,35.4348071 C28.7654858,35.4348071 39.0919246,45.1712879 42.8487469,56.8648548 C46.6055692,68.5584217 52.6714067,76.4715103 66.7546678,76.4715103 Z" id="Oval" opacity="0.223423549"></path>
                            <path d="M71.0584119,86.3648548 C93.3655638,86.3648548 105.913619,80.9367301 90.1389608,53.8649106 C80.1344375,36.6955592 65.760526,20.2408559 53.1803641,16.3463142 C45.924723,14.1001271 36.587184,22.6444646 28.4275603,22.6445761 C6.12040842,22.6445761 27.2420678,36.7869332 33.1926786,55.308934 C39.1432894,73.8309348 48.7512599,86.3648548 71.0584119,86.3648548 Z" id="Oval" opacity="0.223423549"></path>
                            <path d="M72.5488881,95.3648548 C104.266063,95.3648548 122.107375,88.1165395 99.6783535,51.9668387 C85.4535338,29.0401597 71.6006868,5.66034311 53.713724,0.459860823 C43.3973717,-2.53953087 20.9033016,9.88483732 11.674501,15.9700527 C-17.8456269,35.4348071 16.9128077,42.0391641 25.3736172,66.7720708 C33.8344268,91.5049775 40.8317132,95.3648548 72.5488881,95.3648548 Z" id="Oval" opacity="0.223423549"></path>
                        </g>
                        <g id="Group-9-Copy-2" transform="translate(249.000000, 136.000000)">
                            <path d="M66.7546678,76.4715103 C80.8379289,76.4715103 88.7599414,73.0445512 78.8008651,55.9531939 C68.8417887,38.8618367 56.932008,35.4348071 42.8487469,35.4348071 C28.7654858,35.4348071 39.0919246,45.1712879 42.8487469,56.8648548 C46.6055692,68.5584217 52.6714067,76.4715103 66.7546678,76.4715103 Z" id="Oval" opacity="0.223423549"></path>
                            <path d="M71.0584119,86.3648548 C93.3655638,86.3648548 105.913619,80.9367301 90.1389608,53.8649106 C80.1344375,36.6955592 65.760526,20.2408559 53.1803641,16.3463142 C45.924723,14.1001271 36.587184,22.6444646 28.4275603,22.6445761 C6.12040842,22.6445761 27.2420678,36.7869332 33.1926786,55.308934 C39.1432894,73.8309348 48.7512599,86.3648548 71.0584119,86.3648548 Z" id="Oval" opacity="0.223423549"></path>
                            <path d="M72.5488881,95.3648548 C104.266063,95.3648548 122.107375,88.1165395 99.6783535,51.9668387 C85.4535338,29.0401597 71.6006868,5.66034311 53.713724,0.459860823 C43.3973717,-2.53953087 20.9033016,9.88483732 11.674501,15.9700527 C-17.8456269,35.4348071 16.9128077,42.0391641 25.3736172,66.7720708 C33.8344268,91.5049775 40.8317132,95.3648548 72.5488881,95.3648548 Z" id="Oval" opacity="0.223423549"></path>
                        </g>
                        <g id="Group-9-Copy-3" transform="translate(171.000000, 213.000000)">
                            <path d="M85.8472096,98 C103.899402,98 114.053988,93.5739906 101.288254,71.5000455 C88.5225209,49.4261003 73.2563375,45 55.2041455,45 C37.1519536,45 50.3885793,57.5749255 55.2041455,72.6774799 C60.0197118,87.7800344 67.7950176,98 85.8472096,98 Z" id="Oval" opacity="0.223423549"></path>
                            <path d="M91.4852819,111 C120.087377,111 136.176417,104.060124 115.950246,69.448708 C103.122507,47.4976323 84.6923647,26.4602368 68.5621572,21.4810516 C59.2590181,18.6092936 47.2864822,29.5332589 36.8242621,29.5334014 C8.22216691,29.5334014 35.3042307,47.6144544 42.9340678,71.2948969 C50.563905,94.9753395 62.8831867,111 91.4852819,111 Z" id="Oval" opacity="0.223423549"></path>
                            <path d="M93.2371343,122 C133.998868,122 156.927859,112.72725 128.102915,66.4810357 C109.821705,37.1509975 92.0185412,7.24126157 69.0308816,0.588298703 C55.7726891,-3.24881495 26.8641462,12.6456456 15.0036348,20.4304451 C-22.9345364,45.3316526 21.7357118,53.7805886 32.6092297,85.421329 C43.4827476,117.062069 52.4754001,122 93.2371343,122 Z" id="Oval" opacity="0.223423549"></path>
                        </g>
                        <g id="Group-9-Copy-4" transform="translate(0.000000, 90.000000)">
                            <path d="M106.645704,122 C129.136959,122 141.788575,116.571875 125.883727,89.5000558 C109.978878,62.4282363 90.9587155,57 68.46746,57 C45.9762045,57 62.4677381,72.4220784 68.46746,90.9440792 C74.4671819,109.46608 84.1544482,122 106.645704,122 Z" id="Oval" opacity="0.223423549"></path>
                            <path d="M112.521388,138 C147.920021,138 167.8322,129.363709 142.79981,86.2917255 C126.923895,58.9748314 104.114313,32.7949614 84.1511847,26.5986421 C72.6373987,23.0248988 57.8199037,36.6191666 44.8716115,36.619344 C9.47297885,36.619344 42.9903845,59.1202099 52.4332523,88.5892051 C61.8761201,118.0582 77.1227558,138 112.521388,138 Z" id="Oval" opacity="0.223423549"></path>
                            <path d="M115.719847,152 C166.310652,152 194.76862,140.447065 158.992979,82.8288314 C136.303535,46.2864887 114.207409,9.02189967 85.676626,0.732962318 C69.2214226,-4.04770387 33.3420254,15.7552305 18.6215325,25.454325 C-28.4648501,56.4787803 26.9769473,67.0053235 40.4724482,106.426574 C53.9679492,145.847824 65.1290427,152 115.719847,152 Z" id="Oval" opacity="0.223423549"></path>
                        </g>
                        <g id="Group-9-Copy-5" transform="translate(44.000000, 274.000000)">
                            <path d="M106.645704,122 C129.136959,122 141.788575,116.571875 125.883727,89.5000558 C109.978878,62.4282363 90.9587155,57 68.46746,57 C45.9762045,57 62.4677381,72.4220784 68.46746,90.9440792 C74.4671819,109.46608 84.1544482,122 106.645704,122 Z" id="Oval" opacity="0.223423549"></path>
                            <path d="M112.521388,138 C147.920021,138 167.8322,129.363709 142.79981,86.2917255 C126.923895,58.9748314 104.114313,32.7949614 84.1511847,26.5986421 C72.6373987,23.0248988 57.8199037,36.6191666 44.8716115,36.619344 C9.47297885,36.619344 42.9903845,59.1202099 52.4332523,88.5892051 C61.8761201,118.0582 77.1227558,138 112.521388,138 Z" id="Oval" opacity="0.223423549"></path>
                            <path d="M115.719847,152 C166.310652,152 194.76862,140.447065 158.992979,82.8288314 C136.303535,46.2864887 114.207409,9.02189967 85.676626,0.732962318 C69.2214226,-4.04770387 33.3420254,15.7552305 18.6215325,25.454325 C-28.4648501,56.4787803 26.9769473,67.0053235 40.4724482,106.426574 C53.9679492,145.847824 65.1290427,152 115.719847,152 Z" id="Oval" opacity="0.223423549"></path>
                        </g>
                    </g>
                </g>
            </g>
        </g>
    </g>
</svg>