<svg xmlns="http://www.w3.org/2000/svg" width="99" height="82" viewBox="0 0 99 82">
    <g fill="none" fill-rule="evenodd">
        <g fill-rule="nonzero">
            <g>
                <path fill="#4A92CF" d="M41.029 69.878c1.97-.45 4.04-.046 5.697 1.112.157.107.22.179.235.243.014.064-.021.157-.135.314l-.342.47c-.256.37-.52.713-.755 1.084-.05.099-.137.173-.242.207-.097.011-.195-.017-.27-.079-.609-.408-1.295-.685-2.016-.813-.52-.092-1.895-.142-2.03.57-.043.17-.015.35.076.499.09.149.238.255.408.293.84.243 1.681.471 2.315.65.791.19 1.543.519 2.222.969.755.523 1.205 1.384 1.204 2.303.042 1.697-1.117 3.189-2.77 3.565-.559.187-1.143.284-1.731.286-1.875.032-3.707-.568-5.2-1.705h.03c-.069-.046-.115-.118-.13-.2-.002-.082.029-.162.086-.22.442-.542.905-1.084 1.346-1.605l.043-.05c.043-.06.112-.096.185-.1.103.01.2.053.278.122.575.464 1.255.78 1.98.92.406.07 2.471.378 2.685-.45.055-.167.04-.35-.042-.506-.082-.156-.224-.272-.393-.32-.598-.2-1.239-.393-1.901-.571-.863-.194-1.694-.506-2.471-.927-1.119-.703-1.65-2.052-1.31-3.33.327-1.431 1.497-2.515 2.948-2.731zm14.792-.064c1.38-.06 2.718.478 3.674 1.476.712.878 1.001 2.026.791 3.137-.158 1.038-.765 1.954-1.66 2.503-.284.164-.455.271-.49.428-.036.157.078.335.263.606l.59.806 1.503 2.203c.058.073.089.164.086.257-.068.062-.157.095-.25.092H57.48c-.25-.008-.476-.146-.598-.363l-.712-1.041c-.378-.556-.755-1.127-1.126-1.697-.139-.29-.454-.45-.769-.393h-.356c-.427.008-.548.05-.548.542v2.425c0 .428-.121.549-.542.549h-2.136c-.427 0-.548-.121-.548-.542V70.406c0-.478.106-.585.576-.585h5.114zm14.169-.086c.236.016.443.175.516.407l3.276 7.779 1.239 2.945c.043.178.093.264.043.364-.05.1-.157.1-.342.1H73.49l-.057-.008h-1.197l-.093-.002c-.213-.024-.397-.172-.462-.383l-.171-.413c-.114-.286-.228-.564-.342-.849-.082-.256-.33-.422-.598-.4h-3.625l-.095-.005c-.251.007-.472.182-.532.434-.135.413-.285.755-.434 1.126v.043c-.083.29-.354.485-.656.47h-2.314c-.2 0-.313-.035-.363-.106-.05-.072-.036-.186.035-.35l1.724-4.078.954-2.254.42-.984c.477-1.105.962-2.246 1.425-3.372.078-.293.353-.488.655-.464zm16.255.079l-.029.014c.45 0 .563.107.563.563v1.633c0 .435-.085.52-.506.52h-4.935c-.27 0-.434.022-.513.122-.078.1-.078.242-.078.506v.528c0 .37.021.563.463.563h4.536c.356 0 .463.107.463.464v1.632c0 .371-.107.478-.484.478h-4.43c-.242 0-.391.029-.463.121-.07.093-.07.236-.07.485v.542c0 .442.013.62.519.62h5.05c.555 0 .555.022.555.564v1.747c.017.114-.014.23-.086.32-.083.071-.19.105-.299.093h-8.496c-.335 0-.456-.135-.456-.52V70.37c0-.456.114-.563.563-.563h8.133zm-52.01-.007c.405.007.526.128.526.527v10.468c0 .406-.12.527-.52.527h-2.179c-.406 0-.527-.12-.527-.527V70.37c0-.45.114-.563.563-.563h2.136zm58.719 0c.398 0 .52.128.52.527l.007.014v7.537c0 .542.092.642.633.642h4.395c.398 0 .491.093.491.5v1.746c0 .428-.114.55-.534.55h-7.692c-.398 0-.52-.122-.52-.528V70.363c0-.45.114-.563.563-.563zm-24.129 4.085l-.05.05-.1.093c-.083.068-.151.153-.199.25-.235.556-.463 1.126-.677 1.675l-.12.314c-.061.116-.061.255 0 .37.085.103.216.156.348.143h1.332c.25 0 .435-.028.513-.142l.021.007c.079-.114.036-.293-.057-.514l-.242-.591c-.164-.414-.335-.842-.513-1.263-.034-.084-.08-.163-.135-.235l-.078-.1-.043-.057zM55.301 72.58h-1.453c-.13-.009-.259.035-.356.122-.087.095-.13.22-.121.349v1.862c.01.104.051.204.12.284.096.087.222.13.35.122h1.98c.612.008 1.147-.415 1.282-1.013l.035.007c.114-.977-.15-1.44-.947-1.64-.293-.063-.591-.094-.89-.093zm7.42-19.287c1.623.007 3.176.655 4.324 1.804.92.87 1.5 2.04 1.638 3.301l.042.057v.185c.016.078.028.157.036.236.005.097.005.195 0 .292v.136c-.026 2.718-1.897 5.07-4.537 5.704-1.955.55-4.057.097-5.612-1.212-1.1-.868-1.834-2.117-2.058-3.501-.353-1.856.227-3.768 1.553-5.113.866-.923 2.008-1.538 3.254-1.754.448-.09.904-.135 1.36-.135zm-21.692.228c1.97-.45 4.04-.046 5.697 1.112.157.107.22.178.235.243.014.064-.021.156-.135.313l-.335.464c-.256.378-.52.72-.762 1.09-.05.1-.137.174-.242.207-.097.012-.195-.016-.27-.078-.609-.408-1.295-.685-2.016-.813-.52-.093-1.895-.142-2.03.57-.043.17-.015.35.076.498.09.15.238.255.408.294.84.243 1.681.47 2.315.649.791.191 1.543.52 2.222.97.755.523 1.205 1.384 1.204 2.303.042 1.697-1.117 3.189-2.77 3.565-.56.186-1.143.282-1.731.285-1.875.032-3.706-.568-5.2-1.704h-.014c-.067-.047-.114-.118-.128-.2-.003-.082.028-.162.086-.22.434-.521.883-1.049 1.317-1.562l.079-.086c.044-.061.116-.098.192-.1.1.012.195.054.27.122.574.458 1.252.769 1.973.905.406.072 2.471.378 2.685-.449.114-.335-.06-.7-.392-.82-.605-.2-1.246-.392-1.901-.57-.863-.194-1.694-.506-2.471-.927-1.119-.703-1.65-2.053-1.31-3.33.327-1.432 1.497-2.516 2.948-2.731zm-15.26-.013l.097.006h2.4c.164 0 .235.028.314.1.078.07.064.185 0 .356l-2.92 7.287-.627 1.569-.748 1.875c-.072.235-.296.389-.541.371h-2.065l-.088-.001c-.232-.021-.431-.183-.496-.413-.784-1.948-1.57-3.897-2.358-5.846l-.776-1.919.05.008c-.363-.906-.74-1.84-1.118-2.76-.114-.264-.121-.45-.071-.52.05-.072.17-.107.37-.107h2.542l.094.003c.214.025.394.18.448.396l2.136 6.025c.002.02.002.038 0 .057.005.047.022.091.05.129.07.089.164.155.27.192.1.029.236-.157.236-.221l.634-1.754.384-1.055.442-1.198c.263-.713.527-1.426.783-2.14.077-.29.358-.477.655-.434zm48.402-.002c.51.022.982.285 1.27.714.919 1.262 1.902 2.524 2.849 3.743l.755.97c.1.128.263.264.377.228.114-.036.164-.193.164-.492v-4.6c0-.448.114-.563.563-.563h2.058l.035.036c.4 0 .52.121.52.528v10.432c0 .399-.12.52-.527.52h-1.858c-.258.01-.5-.122-.634-.342-.712-.934-1.425-1.868-2.137-2.781l-1.033-1.326-.37-.485c-.164-.214-.335-.442-.505-.656-.073-.084-.154-.16-.243-.228l-.17-.15-.079-.071v.107c-.043.085-.043.164-.043.235-.024.112-.039.227-.042.342v4.756c0 .45-.107.564-.556.564h-2.058c-.406 0-.527-.115-.527-.521V54.034c0-.4.121-.528.52-.528zm-39.944 0l-.042.008c.406.007.52.12.52.527v10.432c0 .4-.122.52-.52.52h-2.137c-.399-.006-.52-.128-.52-.527V54.063c0-.442.114-.557.563-.557h2.136zm18.88 0c.406.008.52.122.52.528v10.432c0 .4-.128.52-.527.52h-2.136c-.406 0-.52-.12-.52-.527V54.063c0-.442.114-.557.562-.557zm11.374 3.295c-.982-.796-2.362-.873-3.426-.193-.879.577-1.39 1.573-1.346 2.624v.25c.021.178.071.356.071.535.228 1.23 1.213 2.18 2.45 2.36.128.01.257.01.385 0 1.055-.009 2.027-.58 2.55-1.498l.028.007c.718-1.365.425-3.044-.712-4.085z" transform="translate(-135 -55) translate(135 55)"/>
                <path fill="#8BC249" d="M6.616 69.286c.865-.116 1.744-.058 2.585.171.113.011.216.068.285.157.03.098.02.203-.028.293-.143.434-.25.884-.37 1.376-.058.256-.172.32-.42.32-.214-.011-.428-.011-.642 0h-.192c-.306.032-.588.183-.783.421-.208.21-.32.496-.314.792.042.145.16.257.306.292.162.013.324.013.485 0h.277c.111-.01.22.03.3.107.049.106.049.229 0 .335-.129.492-.257.998-.378 1.512-.014.144-.087.276-.202.364-.114.088-.26.124-.403.1h-.27c-.877-.015-.912-.015-1.076.62l-.093.342c-.128.435-.242.877-.356 1.305-.157.613-.328 1.255-.527 1.868-.294 1.205-1.341 2.074-2.578 2.14-.578.043-1.16.043-1.738 0C.043 81.763 0 81.664 0 81.23v-.692c.02-.254.056-.506.107-.756.052-.108.148-.188.263-.22.144-.027.291-.027.435 0h.028c.248.045.503-.01.71-.153.207-.143.35-.363.394-.61.25-.764.463-1.555.67-2.325l.128-.47c.05-.102.05-.22 0-.322-.084-.098-.207-.153-.335-.15-.256-.014-.349-.057-.427-.12-.079-.065-.064-.186 0-.421l.078-.264c.121-.407.242-.827.342-1.241.037-.243.262-.412.506-.378.562 0 .662-.078.797-.656.131-.707.397-1.383.784-1.99.509-.682 1.288-1.11 2.136-1.176zm7.378 3.08c1.461-.035 2.842.667 3.675 1.869.402.659.63 1.41.662 2.182-.051 2.388-1.684 4.451-3.995 5.048-1.164.33-2.41.191-3.475-.385-1.204-.62-1.982-1.84-2.037-3.195-.142-2.642 1.706-4.976 4.309-5.44.284-.053.572-.08.861-.078zm12.812.072l.076.002c.092.008.152.03.18.07.044.049.044.135-.056.306l-.2.748c-.156.585-.313 1.191-.47 1.79-.07.271-.206.4-.42.4h-.2c-1.437.034-2.36.824-2.912 2.488-.256.756-.463 1.54-.662 2.303l-.143.528c-.04.257-.276.436-.534.406h-2.18c-.121.017-.244-.022-.334-.107-.054-.11-.054-.239 0-.35l.805-2.98.712-2.58c.214-.792.434-1.612.641-2.418.085-.342.235-.45.563-.45h2.2c.185 0 .27.022.32.072.05.05.043.143 0 .328-.028.125-.05.25-.063.378v.2l.192.12.256-.206.435-.335c.5-.435 1.133-.687 1.794-.713zm-12.47 2.574c-.66-.194-1.374.002-1.844.506-.396.413-.646.944-.713 1.512-.148.626.063 1.283.549 1.704.247.208.56.32.883.314.22-.005.438-.041.648-.107.939-.362 1.535-1.291 1.474-2.296l-.007-.114v-.25c-.037-.587-.43-1.09-.99-1.27zM61.247.877c.479-.088.972-.042 1.425.135.506.198.96.51 1.324.913.68.713 1.12 1.62 1.261 2.595.055.433.055.872 0 1.305-.075.708-.32 1.388-.712 1.982-.308.47-.73.852-1.225 1.113h-.043c.584 3.364.492 6.811-.27 10.14-.771 3.483-1.94 6.866-3.483 10.082-1.499 3.225-3.222 6.342-5.156 9.326-.962 1.498-1.966 2.974-3.02 4.4-1.054 1.426-2.1 2.852-3.319 4.278-.499.59-1.236.925-2.008.913-1 .03-1.915-.556-2.307-1.476-.535-1.255-15.939-39.76-15.939-39.76h9.543c.962 0 1.375.229 1.674 1.063.904 2.567 9.721 26.404 10.918 29.663.398-.478.797-.949 1.189-1.427 2.15-2.63 4.114-5.408 5.875-8.314 1.774-2.893 3.207-5.982 4.273-9.205 1.015-3.023 1.407-6.22 1.154-9.398h-.17c-.462.012-.919-.088-1.333-.292-.57-.283-1.06-.705-1.424-1.227-.594-.811-.918-1.79-.926-2.795-.013-.7.13-1.395.42-2.032.241-.558.615-1.048 1.09-1.426.346-.28.754-.47 1.19-.556zM51.15 19.459c.89 2.017 4.102 2.73 4.9 5.048.676 1.99-.627 4.92-1.852 6.146.534-3.636-1.118-4.82-2.272-6.959-.047-.073-.138-.105-.22-.078-.078.017-.128.092-.115.17.663 2.297 1.738 3.787 1.425 6.703-1.097-1.305-3.041-1.925-3.647-3.9-.769-2.26.62-6.196 1.78-7.13zm13.104 3.116c2.03-1.712 5.654-1.833 7.065-.92-.905 1.854-1.097 4.749-3.105 6.467-1.807 1.345-4.124 1.799-6.303 1.234 3.205-1.426 4.209-3.494 5.982-5.348.053-.07.053-.166 0-.236-.02-.034-.054-.058-.093-.068-.039-.009-.08-.002-.114.019-2.058 1.476-3.454 3.151-6.188 4.428.705-1.812 1.018-4.15 2.756-5.576zM53.37 9.583c1.972.884 4.814.927 6.153 3.294 1.056 1.956 1.21 4.275.42 6.353-1.097-3.037-2.706-4.328-4.358-6.175-.054-.045-.132-.045-.186 0-.06.037-.082.115-.05.179 1.261 2.139 2.507 3.829 3.398 6.417l-.114-.036c-1.617-.52-3.412-.955-4.551-2.902-1.424-2.36-1.674-5.897-.712-7.13zm17.934-.272h.176c1.104 1.74.684 3.866-1.146 5.235-1.208 1.032-2.574 1.862-4.045 2.46.398-2.246 2.307-3.473 3.731-5.056l.024-.029c.013-.02.02-.045.02-.07 0-.039-.016-.075-.044-.1-.067-.053-.16-.053-.227 0-1.674 1.397-3.81 2.438-4.523 4.463-.695-1.628-.144-3.522 1.318-4.52 1.844-1.377 3.625-2.44 4.892-2.382zm-9.242-7.664l-.082.007c-.084-.001-.157.06-.171.142-.01.06-.01.12 0 .179.014.135.007.285.057.406.05.121.05.25.05.378.009.192.141.357.327.406l.235.043c.506.194.945.528 1.268.963l.157.192c.022.028.048.052.078.072.057.035.114.021.114-.036.014-.046.019-.095.014-.143-.012-.149-.036-.296-.07-.442-.22-.797-.727-1.483-1.425-1.925-.147-.097-.305-.176-.47-.235-.054-.01-.11-.01-.164 0z" transform="translate(-135 -55) translate(135 55)"/>
            </g>
        </g>
    </g>
</svg>
