<svg xmlns="http://www.w3.org/2000/svg" xmlns:xlink="http://www.w3.org/1999/xlink" width="1442" height="900" viewBox="0 0 1442 900">
    <defs>
        <path id="m6qf398p6a" d="M0 0H1442V900H0z"/>
    </defs>
    <g fill="none" fill-rule="evenodd">
        <g>
            <g transform="translate(2 -5072) translate(-2 5072)">
                <mask id="89rkxik1eb" fill="#fff">
                    <use xlink:href="#m6qf398p6a"/>
                </mask>
                <use fill="#F4F5F6" xlink:href="#m6qf398p6a"/>
                <path stroke="#434343" stroke-width="3" d="M520.21 642.083c133.09 0 125.744 22.616 165.203 188.04 39.46 165.423-56.688 204.41-189.778 204.41-133.09 0 2.04-145.752-81.106-198.2-83.146-52.449-27.409-194.25 105.681-194.25zm-1.213 39.283c-109.665 0-155.593 116.707-87.08 159.874 68.511 43.167-42.835 163.126 66.83 163.126 109.666 0 172.89-57.656 172.89-167.173s-42.974-155.827-152.64-155.827zM904.36 481.083c163.546 0 154.518 27.776 203.008 230.946 48.49 203.17-69.66 251.054-233.207 251.054-163.546 0 2.506-179.01-99.667-243.427-102.172-64.416-33.68-238.573 129.866-238.573zM538 714.923c81.186 0 113 34.33 113 115.516s-46.805 123.927-127.99 123.927c-81.187 0 1.243-88.927-49.476-120.927-50.72-32-16.72-118.516 64.466-118.516zm773.566-154.196c133.09 0 125.743 22.616 165.203 188.04 39.46 165.423-56.688 204.41-189.778 204.41-133.09 0 2.04-145.752-81.106-198.2-83.146-52.449-27.41-194.25 105.68-194.25zm-408.644-31.644c-134.663 0-191.059 143.445-106.93 196.5 84.128 53.057-52.598 200.5 82.065 200.5s212.299-70.866 212.299-205.473c0-134.607-52.77-191.527-187.434-191.527zm407.431 70.927c-109.666 0-155.593 116.707-87.081 159.874 68.512 43.167-42.834 163.126 66.831 163.126 109.666 0 172.89-57.656 172.89-167.173s-42.974-155.827-152.64-155.827zM555.745 732.083c-60.079 0-85.239 63.954-47.706 87.609 37.533 23.655-23.466 89.39 36.612 89.39s103.48-17.583 85.668-92.191c-17.813-74.608-14.496-84.808-74.574-84.808zm19.948 19.356c27.119 0 22.638 65.254 30.678 98.975 8.04 33.721-11.55 41.669-38.67 41.669-27.118 0-27.895-88.859-44.837-99.55-16.942-10.691 25.71-41.094 52.83-41.094zm753.663-117.872c81.185 0 113 34.33 113 115.516S1395.55 873.01 1314.365 873.01s1.244-88.927-49.476-120.927-16.72-118.516 64.467-118.516zM578.88 781.439c-16.114 0-41.46 17.942-31.392 24.251 10.067 6.31 10.53 58.749 26.643 58.749 16.115 0 27.756-4.69 22.978-24.59-4.777-19.9-2.114-58.41-18.229-58.41zm347.864-211.356c99.586 0 138.61 42.152 138.61 141.836 0 99.684-57.413 152.164-156.999 152.164s1.526-109.19-60.688-148.48c-62.215-39.292-20.51-145.52 79.077-145.52zm420.355 80.644c-60.078 0-85.238 63.954-47.706 87.609 37.533 23.655-23.465 89.39 36.613 89.39s103.48-17.583 85.668-92.191c-17.813-74.608-14.497-84.808-74.575-84.808zm19.949 19.356c27.118 0 22.637 65.254 30.678 98.975 8.04 33.721-11.551 41.669-38.67 41.669-27.118 0-27.896-88.858-44.838-99.55-16.942-10.691 25.711-41.094 52.83-41.094zm-418.32-79c-73.846 0-104.772 78.768-58.638 107.902 46.134 29.134-28.843 110.098 45.003 110.098s127.194-21.657 105.3-113.547c-21.895-91.89-17.818-104.453-91.664-104.453zM143.004 322.439c163.547 0 154.519 27.776 203.008 230.946 48.49 203.17-69.66 251.054-233.206 251.054-163.547 0 2.506-179.01-99.667-243.427C-89.035 496.596-20.543 322.44 143.003 322.44zm830.271 292.644c33.445 0 27.918 80.266 37.834 121.745 9.916 41.479-14.245 51.255-47.69 51.255s-34.403-109.3-55.297-122.452c-20.895-13.151 31.708-50.548 65.153-50.548zm396.963 85c-16.115 0-41.46 17.942-31.392 24.251 10.067 6.31 10.529 58.749 26.643 58.749s27.756-4.69 22.978-24.59c-4.778-19.9-2.115-58.41-18.23-58.41zM141.567 370.439c-134.663 0-191.06 143.445-106.93 196.5 84.128 53.057-52.599 200.5 82.064 200.5C251.364 767.439 329 696.573 329 561.966c0-134.607-52.77-191.527-187.433-191.527zM976.67 652.083c-19.763 0-50.846 22.049-38.5 29.803 12.347 7.754 12.913 72.197 32.676 72.197s34.04-5.764 28.18-30.22c-5.859-24.455-2.593-71.78-22.356-71.78zM165.39 411.439C264.975 411.439 304 453.59 304 553.275c0 99.684-57.413 152.164-157 152.164-99.585 0 1.527-109.19-60.688-148.48-62.215-39.292-20.509-145.52 79.077-145.52zm1538.05 27.7c93.659 141.951 16.644 211.472-108.42 256.991-125.063 45.52-47.933-137.66-144.003-158.508-96.07-20.848-92.193-173.16 32.87-218.68 125.064-45.52 125.896-21.754 219.554 120.197zm-207.257-82.868c-103.052 37.508-106.293 162.885-27.149 180.016s15.541 167.939 118.594 130.43c103.052-37.507 142.743-113.31 105.286-216.222-37.457-102.912-93.678-131.732-196.73-94.224zM187.374 432.44c-73.846 0-104.772 78.768-58.638 107.902 46.134 29.134-28.844 110.098 45.002 110.098s127.195-21.657 105.3-113.547c-21.894-91.89-17.818-104.453-91.664-104.453zm24.544 24c33.445 0 27.919 80.266 37.835 121.745s-14.246 51.255-47.69 51.255c-33.445 0-34.404-109.3-55.298-122.452-20.894-13.151 31.709-50.548 65.153-50.548zm1459.292-5.233c27.767 76.29-1.596 132.462-77.886 160.23-76.29 27.767-29.246-83.99-87.852-96.714-58.605-12.723-56.246-105.65 20.044-133.417 76.29-27.767 117.927-6.389 145.694 69.901zm-1127-242.123c133.09 0 125.744 22.616 165.203 188.04 39.46 165.423-56.688 204.41-189.778 204.41-133.09 0 2.04-145.752-81.106-198.2-83.146-52.449-27.409-194.25 105.681-194.25zM215.315 493.439c-19.762 0-50.846 22.049-38.5 29.803 12.347 7.754 12.914 72.197 32.677 72.197 19.762 0 34.04-5.764 28.18-30.22-5.86-24.456-2.594-71.78-22.357-71.78zm327.682-245.073c-109.665 0-155.593 116.707-87.08 159.874 68.511 43.167-42.835 163.126 66.83 163.126 109.666 0 172.89-57.656 172.89-167.173s-42.974-155.827-152.64-155.827zM1548.06 391.361c-56.455 20.548-58.225 89.25-14.865 98.642 43.36 9.391 8.523 92.026 64.978 71.478 56.455-20.548 91.225-51.916 48.97-115.932-42.256-64.017-42.628-74.736-99.083-54.188zm88.045 93.88c19.088 28.938 3.397 43.106-22.086 52.381-25.483 9.276-56.605-73.958-76.182-78.21-19.577-4.253 10.105-47.41 35.588-56.685 25.484-9.275 43.591 53.576 62.68 82.514zM1333.44 269.139c93.658 141.951 16.643 211.472-108.42 256.991-125.064 45.52-47.934-137.66-144.004-158.508-96.07-20.848-92.193-173.16 32.87-218.68 125.064-45.52 125.896-21.754 219.554 120.197zM562 281.923c81.186 0 113 34.33 113 115.516s-46.805 123.927-127.99 123.927c-81.187 0 1.243-88.927-49.476-120.927-50.72-32-16.72-118.516 64.466-118.516zm1024.682 147.904c-15.143 5.512-32.823 31.04-21.205 33.526 11.618 2.486 29.988 51.604 45.13 46.093 15.143-5.511 24.478-13.9 13.182-30.966-11.296-17.066-21.965-54.164-37.107-48.653zm-460.5-243.556c-103.052 37.508-106.293 162.885-27.149 180.016s15.541 167.939 118.594 130.43c103.052-37.507 142.743-113.31 105.286-216.222-37.457-102.912-93.678-131.732-196.73-94.224zM579.745 299.083c-60.079 0-85.239 63.954-47.706 87.609 37.533 23.655-23.466 89.39 36.612 89.39s103.48-17.583 85.668-92.191c-17.813-74.608-14.496-84.808-74.574-84.808zm19.948 19.356c27.119 0 22.638 65.254 30.678 98.975 8.04 33.721-11.55 41.669-38.67 41.669-27.118 0-27.895-88.859-44.837-99.55-16.942-10.691 25.71-41.094 52.83-41.094zm701.517-37.233c27.767 76.29-1.596 132.462-77.886 160.23-76.29 27.767-29.246-83.99-87.852-96.714-58.605-12.723-56.246-105.65 20.044-133.417 76.29-27.767 117.927-6.389 145.694 69.901zM602.881 348.44c-16.114 0-41.46 17.942-31.392 24.251 10.067 6.31 10.53 58.749 26.643 58.749 16.115 0 27.756-4.69 22.978-24.59-4.777-19.9-2.114-58.41-18.229-58.41zM1178.06 221.36c-56.455 20.548-58.225 89.25-14.865 98.642 43.36 9.391 8.523 92.026 64.978 71.478 56.455-20.548 91.225-51.916 48.97-115.932-42.256-64.017-42.628-74.736-99.083-54.188zm88.045 93.88c19.088 28.938 3.397 43.106-22.086 52.381-25.483 9.276-56.605-73.958-76.182-78.21-19.577-4.253 10.105-47.41 35.588-56.685 25.484-9.275 43.591 53.576 62.68 82.514zm-49.423-55.414c-15.143 5.512-32.823 31.04-21.205 33.526 11.618 2.486 29.988 51.604 45.13 46.093 15.143-5.511 24.478-13.9 13.182-30.966-11.296-17.066-21.965-54.164-37.107-48.653zM-79.79-77.917c133.09 0 125.744 22.616 165.203 188.04 39.46 165.423-56.688 204.41-189.778 204.41-133.09 0 2.04-145.752-81.106-198.2-83.146-52.449-27.409-194.25 105.681-194.25zm-1.213 39.283c-109.665 0-155.593 116.707-87.08 159.874 68.511 43.167-42.835 163.126 66.83 163.126 109.666 0 172.89-57.656 172.89-167.173S28.664-38.634-81.002-38.634zM1103.44-280.86c93.658 141.951 16.643 211.472-108.42 256.991-7.567 2.754-14.393 4.671-20.563 5.838l-.753.138.228.85c6.643 24.867 13.402 56.257 22.837 95.81 39.46 165.424-56.688 204.412-189.778 204.412-133.09 0 2.04-145.753-81.106-198.202-83.146-52.448-27.41-194.25 105.68-194.25 32.568 0 56.725 1.355 75.218 5.824l.643.158c-7.031-35.668-17.555-70.654-56.41-79.086-96.07-20.848-92.193-173.16 32.87-218.68 125.064-45.52 125.896-21.754 219.554 120.197zm-207.258-82.868C793.13-326.22 789.89-200.844 869.034-183.713c38.936 8.428 43.323 49.209 50.002 84.004-3.6-1.37-7.46-2.557-11.61-3.583 3.371 17.128 5.94 34.413 10.451 48.99-22.499-10.66-51.391-15.688-87.523-15.688-109.666 0-155.593 116.707-87.081 159.874 68.512 43.167-42.834 163.126 66.831 163.126 109.666 0 172.89-57.656 172.89-167.173 0-43.989-6.933-77.78-22.336-102.47 3.977.002 8.31-.405 13.033-1.258l.014-.003-.004-.015c-2.89-10.757-5.763-20.281-8.83-28.71l-.352-.958.629-.064c6.454-.696 13.888-2.514 22.48-5.641 103.052-37.508 142.743-113.311 105.286-216.223-37.457-102.912-93.678-131.732-196.73-94.224zM304.36-238.917c163.546 0 154.518 27.776 203.008 230.946 48.49 203.17-69.66 251.054-233.207 251.054-163.546 0 2.506-179.01-99.667-243.427C72.321-64.76 140.813-238.917 304.36-238.917zM-62-5.077c81.186 0 113 34.33 113 115.516S4.195 234.366-76.99 234.366c-81.187 0 1.243-88.927-49.476-120.927-50.72-32-16.72-118.516 64.466-118.516zm364.922-185.84c-134.663 0-191.059 143.445-106.93 196.5 84.128 53.057-52.598 200.5 82.065 200.5S490.356 135.217 490.356.61c0-134.607-52.77-191.527-187.434-191.527zM849.356-36.433c81.185 0 113 34.33 113 115.516S915.55 203.01 834.365 203.01s1.244-88.927-49.476-120.927-16.72-118.516 64.467-118.516zM-44.255 12.083c-60.079 0-85.239 63.954-47.706 87.609 37.533 23.655-23.466 89.39 36.612 89.39S48.131 171.5 30.32 96.892C12.506 22.283 15.823 12.083-44.255 12.083zm19.948 19.356c27.119 0 22.638 65.254 30.678 98.975 8.04 33.721-11.55 41.669-38.67 41.669-27.118 0-27.895-88.859-44.837-99.55-16.942-10.691 25.71-41.094 52.83-41.094zM867.1-19.273c-60.078 0-85.238 63.954-47.706 87.609 37.533 23.655-23.465 89.39 36.613 89.39s103.48-17.583 85.668-92.191C923.862-9.073 927.178-19.273 867.1-19.273zM-21.119 61.439c-16.114 0-41.46 17.942-31.392 24.251 10.067 6.31 10.53 58.749 26.643 58.749 16.115 0 27.756-4.69 22.978-24.59-4.777-19.9-2.114-58.41-18.229-58.41zm347.864-211.356c99.586 0 138.61 42.152 138.61 141.836 0 99.684-57.412 152.164-156.999 152.164-99.586 0 1.526-109.19-60.689-148.48-62.214-39.292-20.508-145.52 79.078-145.52zm560.304 150c27.118 0 22.637 65.254 30.678 98.975 8.04 33.721-11.551 41.669-38.67 41.669-27.118 0-27.896-88.858-44.838-99.55C817.277 30.486 859.93.083 887.05.083zm3.188 30c-16.115 0-41.46 17.942-31.392 24.251 10.067 6.31 10.529 58.749 26.643 58.749s27.756-4.69 22.978-24.59c-4.778-19.9-2.115-58.41-18.23-58.41zm-541.507-159c-73.847 0-104.773 78.768-58.639 107.902C336.225 8.12 261.248 89.083 335.094 89.083s127.194-21.657 105.3-113.547c-21.895-91.89-17.818-104.453-91.664-104.453zm-805.727-268.644c163.547 0 154.519 27.776 203.008 230.946 48.49 203.17-69.66 251.054-233.206 251.054-163.547 0 2.506-179.01-99.667-243.427-102.173-64.416-33.681-238.573 129.865-238.573zm830.271 292.644c33.445 0 27.918 80.266 37.834 121.745 9.916 41.479-14.245 51.255-47.69 51.255s-34.403-109.3-55.297-122.452c-20.895-13.151 31.708-50.548 65.153-50.548zm-831.707-244.644c-134.663 0-191.06 143.445-106.93 196.5 84.128 53.057-52.599 200.5 82.064 200.5C-348.636 47.439-271-23.427-271-158.034c0-134.607-52.77-191.527-187.433-191.527zM376.67-67.917c-19.763 0-50.846 22.049-38.5 29.803 12.347 7.754 12.913 72.197 32.676 72.197s34.04-5.764 28.18-30.22c-5.859-24.455-2.593-71.78-22.356-71.78zM-434.61-308.561c99.586 0 138.611 42.152 138.611 141.836 0 99.684-57.413 152.164-157 152.164-99.585 0 1.527-109.19-60.688-148.48-62.215-39.292-20.509-145.52 79.077-145.52zM917.876-54.301c18.364 8.694 32.47 21.142 42.78 37.668-24.601.012-35.781-15.463-42.575-37.013l-.205-.655zm1.159-45.408c22.646 8.58 35.191 24.278 45.48 52.122l.003.01-.013.002c-32.007 3.111-39.592-21.789-45.298-51.24l-.172-.894zM-412.626-287.56c-73.846 0-104.772 78.768-58.638 107.902 46.134 29.134-28.844 110.098 45.002 110.098s127.195-21.657 105.3-113.547c-21.894-91.89-17.818-104.453-91.664-104.453zm24.544 24c33.445 0 27.919 80.266 37.835 121.745s-14.246 51.255-47.69 51.255c-33.445 0-34.404-109.3-55.298-122.452-20.894-13.151 31.709-50.548 65.153-50.548zm1459.292-5.233c27.767 76.29-1.596 132.462-77.886 160.23-76.29 27.767-29.246-83.99-87.852-96.714-58.605-12.723-56.246-105.65 20.044-133.417 76.29-27.767 117.927-6.389 145.694 69.901zm-1127-242.123c133.09 0 125.744 22.616 165.203 188.04 39.46 165.423-56.688 204.41-189.778 204.41-133.09 0 2.04-145.752-81.106-198.2-83.146-52.449-27.409-194.25 105.681-194.25zm-328.895 284.356c-19.762 0-50.846 22.049-38.5 29.803 12.347 7.754 12.914 72.197 32.677 72.197 19.762 0 34.04-5.764 28.18-30.22-5.86-24.456-2.594-71.78-22.357-71.78zm327.682-245.073c-109.665 0-155.593 116.707-87.08 159.874 68.511 43.167-42.835 163.126 66.83 163.126 109.666 0 172.89-57.656 172.89-167.173S52.664-471.634-57.002-471.634zM948.06-328.639c-56.455 20.548-58.225 89.25-14.865 98.642 43.36 9.391 8.523 92.026 64.978 71.478 56.455-20.548 91.225-51.916 48.97-115.932-42.256-64.017-42.628-74.736-99.083-54.188zM683.44-430.86c93.658 141.951 16.643 211.472-108.42 256.991-125.064 45.52-47.934-137.66-144.004-158.508-96.07-20.848-92.193-173.16 32.87-218.68 125.064-45.52 125.896-21.754 219.554 120.197zm352.665 196.102c19.088 28.938 3.397 43.106-22.086 52.381-25.483 9.276-56.605-73.958-76.182-78.21-19.577-4.253 10.105-47.41 35.588-56.685 25.484-9.275 43.591 53.576 62.68 82.514zm-559.923-278.97C373.13-476.22 369.89-350.844 449.034-333.713s15.541 167.939 118.594 130.43c103.052-37.507 142.743-113.31 105.286-216.222-37.457-102.912-93.678-131.732-196.73-94.224zM-38-438.077c81.186 0 113 34.33 113 115.516S28.195-198.634-52.99-198.634c-81.187 0 1.243-88.927-49.476-120.927-50.72-32-16.72-118.516 64.466-118.516zM986.682-290.173c-15.143 5.512-32.823 31.04-21.205 33.526 11.618 2.486 29.988 51.604 45.13 46.093 15.143-5.511 24.478-13.9 13.182-30.966-11.296-17.066-21.965-54.164-37.107-48.653zM-20.255-420.917c-60.079 0-85.239 63.954-47.706 87.609 37.533 23.655-23.466 89.39 36.612 89.39S72.131-261.5 54.32-336.108c-17.813-74.608-14.496-84.808-74.574-84.808zm671.465 2.123c27.767 76.29-1.596 132.462-77.886 160.23-76.29 27.767-29.246-83.99-87.852-96.714-58.605-12.723-56.246-105.65 20.044-133.417 76.29-27.767 117.927-6.389 145.694 69.901zM-.307-401.56c27.119 0 22.638 65.254 30.678 98.975 8.04 33.721-11.55 41.669-38.67 41.669-27.118 0-27.895-88.859-44.837-99.55-16.942-10.691 25.71-41.094 52.83-41.094zm3.188 30c-16.114 0-41.46 17.942-31.392 24.251 10.067 6.31 10.53 58.749 26.643 58.749 16.115 0 27.756-4.69 22.978-24.59-4.777-19.9-2.114-58.41-18.229-58.41zM528.06-478.64c-56.455 20.548-58.225 89.25-14.865 98.642 43.36 9.391 8.523 92.026 64.978 71.478 56.455-20.548 91.225-51.916 48.97-115.932-42.256-64.017-42.628-74.736-99.083-54.188zm88.045 93.88c19.088 28.938 3.397 43.106-22.086 52.381-25.483 9.276-56.605-73.958-76.182-78.21-19.577-4.253 10.105-47.41 35.588-56.685 25.484-9.275 43.591 53.576 62.68 82.514zm-49.423-55.414c-15.143 5.512-32.823 31.04-21.205 33.526 11.618 2.486 29.988 51.604 45.13 46.093 15.143-5.511 24.478-13.9 13.182-30.966-11.296-17.066-21.965-54.164-37.107-48.653z" mask="url(#89rkxik1eb)" opacity=".026"/>
            </g>
        </g>
    </g>
</svg>
