<?xml version="1.0" encoding="UTF-8"?>
<svg width="1042px" height="428px" viewBox="0 0 1042 428" version="1.1" xmlns="http://www.w3.org/2000/svg" xmlns:xlink="http://www.w3.org/1999/xlink">
    <title>Group 45</title>
    <g id="Page-1" stroke="none" stroke-width="1" fill="none" fill-rule="evenodd">
        <g id="Homepage---V2" transform="translate(-250.000000, -288.000000)">
            <g id="Group-21" transform="translate(284.000000, 307.000000)">
                <g id="Group-22" transform="translate(0.000000, 14.000000)">
                    <g id="Group-10" transform="translate(430.500000, 152.500000) scale(-1, 1) translate(-430.500000, -152.500000) translate(104.000000, 104.000000)">
                        <g id="Group-45" transform="translate(-249.471842, -136.000000)">
                            <g id="Group-10" transform="translate(0.000000, 0.000000)"></g>
                            <g id="Group-9" opacity="0.547851562" transform="translate(873.648402, 152.000000)" stroke="#255883" stroke-width="2">
                                <path d="M66.3482467,76.4715103 C80.345765,76.4715103 88.219546,73.0445512 78.3211033,55.9531939 C68.4226606,38.8618367 56.58539,35.4348071 42.5878717,35.4348071 C28.5903534,35.4348071 38.853922,45.1712879 42.5878717,56.8648548 C46.3218214,68.5584217 52.3507284,76.4715103 66.3482467,76.4715103 Z" id="Oval" opacity="0.223423549"></path>
                                <path d="M70.6257883,86.3648548 C92.7971281,86.3648548 105.268787,80.9367301 89.5901695,53.8649106 C79.6465566,36.6955592 65.3601575,20.2408559 52.8565872,16.3463142 C45.6451204,14.1001271 36.364431,22.6444646 28.2544854,22.6445761 C6.08314566,22.6445761 27.0762104,36.7869332 32.9905922,55.308934 C38.9049741,73.8309348 48.4544486,86.3648548 70.6257883,86.3648548 Z" id="Oval" opacity="0.223423549"></path>
                                <path d="M72.1071901,95.3648548 C103.631262,95.3648548 121.363951,88.1165395 99.0714837,51.9668387 C84.9332688,29.0401597 71.1647617,5.66034311 53.3866998,0.459860823 C43.1331564,-2.53953087 20.7760364,9.88483732 11.6034234,15.9700527 C-17.7369777,35.4348071 16.8098378,42.0391641 25.2191355,66.7720708 C33.6284333,91.5049775 40.5831183,95.3648548 72.1071901,95.3648548 Z" id="Oval" opacity="0.223423549"></path>
                            </g>
                            <g id="Group-9" opacity="0.547851562" transform="translate(466.144597, 112.000000)" stroke="#255883" stroke-width="2">
                                <path d="M66.3482467,76.4715103 C80.345765,76.4715103 88.219546,73.0445512 78.3211033,55.9531939 C68.4226606,38.8618367 56.58539,35.4348071 42.5878717,35.4348071 C28.5903534,35.4348071 38.853922,45.1712879 42.5878717,56.8648548 C46.3218214,68.5584217 52.3507284,76.4715103 66.3482467,76.4715103 Z" id="Oval" opacity="0.223423549"></path>
                                <path d="M70.6257883,86.3648548 C92.7971281,86.3648548 105.268787,80.9367301 89.5901695,53.8649106 C79.6465566,36.6955592 65.3601575,20.2408559 52.8565872,16.3463142 C45.6451204,14.1001271 36.364431,22.6444646 28.2544854,22.6445761 C6.08314566,22.6445761 27.0762104,36.7869332 32.9905922,55.308934 C38.9049741,73.8309348 48.4544486,86.3648548 70.6257883,86.3648548 Z" id="Oval" opacity="0.223423549"></path>
                                <path d="M72.1071901,95.3648548 C103.631262,95.3648548 121.363951,88.1165395 99.0714837,51.9668387 C84.9332688,29.0401597 71.1647617,5.66034311 53.3866998,0.459860823 C43.1331564,-2.53953087 20.7760364,9.88483732 11.6034234,15.9700527 C-17.7369777,35.4348071 16.8098378,42.0391641 25.2191355,66.7720708 C33.6284333,91.5049775 40.5831183,95.3648548 72.1071901,95.3648548 Z" id="Oval" opacity="0.223423549"></path>
                            </g>
                            <g id="Group-9-Copy" opacity="0.547851562" transform="translate(928.313546, 76.000000)" stroke="#255883" stroke-width="2">
                                <path d="M66.3482467,76.4715103 C80.345765,76.4715103 88.219546,73.0445512 78.3211033,55.9531939 C68.4226606,38.8618367 56.58539,35.4348071 42.5878717,35.4348071 C28.5903534,35.4348071 38.853922,45.1712879 42.5878717,56.8648548 C46.3218214,68.5584217 52.3507284,76.4715103 66.3482467,76.4715103 Z" id="Oval" opacity="0.223423549"></path>
                                <path d="M70.6257883,86.3648548 C92.7971281,86.3648548 105.268787,80.9367301 89.5901695,53.8649106 C79.6465566,36.6955592 65.3601575,20.2408559 52.8565872,16.3463142 C45.6451204,14.1001271 36.364431,22.6444646 28.2544854,22.6445761 C6.08314566,22.6445761 27.0762104,36.7869332 32.9905922,55.308934 C38.9049741,73.8309348 48.4544486,86.3648548 70.6257883,86.3648548 Z" id="Oval" opacity="0.223423549"></path>
                                <path d="M72.1071901,95.3648548 C103.631262,95.3648548 121.363951,88.1165395 99.0714837,51.9668387 C84.9332688,29.0401597 71.1647617,5.66034311 53.3866998,0.459860823 C43.1331564,-2.53953087 20.7760364,9.88483732 11.6034234,15.9700527 C-17.7369777,35.4348071 16.8098378,42.0391641 25.2191355,66.7720708 C33.6284333,91.5049775 40.5831183,95.3648548 72.1071901,95.3648548 Z" id="Oval" opacity="0.223423549"></path>
                            </g>
                            <g id="Group-9-Copy-2" opacity="0.547851562" transform="translate(784.196347, 46.000000)" stroke="#255883" stroke-width="2">
                                <path d="M66.3482467,76.4715103 C80.345765,76.4715103 88.219546,73.0445512 78.3211033,55.9531939 C68.4226606,38.8618367 56.58539,35.4348071 42.5878717,35.4348071 C28.5903534,35.4348071 38.853922,45.1712879 42.5878717,56.8648548 C46.3218214,68.5584217 52.3507284,76.4715103 66.3482467,76.4715103 Z" id="Oval" opacity="0.223423549"></path>
                                <path d="M70.6257883,86.3648548 C92.7971281,86.3648548 105.268787,80.9367301 89.5901695,53.8649106 C79.6465566,36.6955592 65.3601575,20.2408559 52.8565872,16.3463142 C45.6451204,14.1001271 36.364431,22.6444646 28.2544854,22.6445761 C6.08314566,22.6445761 27.0762104,36.7869332 32.9905922,55.308934 C38.9049741,73.8309348 48.4544486,86.3648548 70.6257883,86.3648548 Z" id="Oval" opacity="0.223423549"></path>
                                <path d="M72.1071901,95.3648548 C103.631262,95.3648548 121.363951,88.1165395 99.0714837,51.9668387 C84.9332688,29.0401597 71.1647617,5.66034311 53.3866998,0.459860823 C43.1331564,-2.53953087 20.7760364,9.88483732 11.6034234,15.9700527 C-17.7369777,35.4348071 16.8098378,42.0391641 25.2191355,66.7720708 C33.6284333,91.5049775 40.5831183,95.3648548 72.1071901,95.3648548 Z" id="Oval" opacity="0.223423549"></path>
                            </g>
                            <g id="Group-9-Copy-3" opacity="0.547851562" transform="translate(706.671233, 123.000000)" stroke="#255883" stroke-width="2">
                                <path d="M85.3245477,98 C103.266833,98 113.359595,93.5739906 100.671583,71.5000455 C87.983571,49.4261003 72.8103324,45 54.8680472,45 C36.9257621,45 50.0817995,57.5749255 54.8680472,72.6774799 C59.654295,87.7800344 67.3822626,98 85.3245477,98 Z" id="Oval" opacity="0.223423549"></path>
                                <path d="M90.9282938,111 C119.356251,111 135.347337,104.060124 115.244309,69.448708 C102.494668,47.4976323 84.1767339,26.4602368 68.1447316,21.4810516 C58.8982326,18.6092936 46.9985889,29.5332589 36.6000657,29.5334014 C8.17210806,29.5334014 35.0892886,47.6144544 42.6726732,71.2948969 C50.2560578,94.9753395 62.5003362,111 90.9282938,111 Z" id="Oval" opacity="0.223423549"></path>
                                <path d="M92.6694805,122 C133.183046,122 155.972439,112.72725 127.322988,66.4810357 C109.15308,37.1509975 91.4583065,7.24126157 68.6106022,0.588298703 C55.4331293,-3.24881495 26.7005898,12.6456456 14.9122884,20.4304451 C-22.7949045,45.3316526 21.6033787,53.7805886 32.4106956,85.421329 C43.2180125,117.062069 52.1559152,122 92.6694805,122 Z" id="Oval" opacity="0.223423549"></path>
                            </g>
                            <g id="Group-9-Copy-4" opacity="0.547851562" transform="translate(536.712329, 0.000000)" stroke="#255883" stroke-width="2">
                                <path d="M105.996415,122 C128.350737,122 140.925326,116.571875 125.117311,89.5000558 C109.309296,62.4282363 90.4049334,57 68.0506109,57 C45.6962885,57 62.087417,72.4220784 68.0506109,90.9440792 C74.0138049,109.46608 83.6420924,122 105.996415,122 Z" id="Oval" opacity="0.223423549"></path>
                                <path d="M111.836327,138 C147.019443,138 166.81039,129.363709 141.930404,86.2917255 C126.151147,58.9748314 103.480436,32.7949614 83.6388487,26.5986421 C72.1951618,23.0248988 57.46788,36.6191666 44.5984205,36.619344 C9.4153047,36.619344 42.728647,59.1202099 52.1140239,88.5892051 C61.4994009,118.0582 76.6532109,138 111.836327,138 Z" id="Oval" opacity="0.223423549"></path>
                                <path d="M115.015313,152 C165.298106,152 193.582814,140.447065 158.024986,82.8288314 C135.473681,46.2864887 113.512083,9.02189967 85.1550028,0.732962318 C68.7999832,-4.04770387 33.1390298,15.7552305 18.5081594,25.454325 C-28.2915481,56.4787803 26.8127041,67.0053235 40.2260406,106.426574 C53.6393772,145.847824 64.7325188,152 115.015313,152 Z" id="Oval" opacity="0.223423549"></path>
                            </g>
                            <g id="Group-9-Copy-5" opacity="0.547851562" transform="translate(580.444444, 184.000000)" stroke="#255883" stroke-width="2">
                                <path d="M105.996415,122 C128.350737,122 140.925326,116.571875 125.117311,89.5000558 C109.309296,62.4282363 90.4049334,57 68.0506109,57 C45.6962885,57 62.087417,72.4220784 68.0506109,90.9440792 C74.0138049,109.46608 83.6420924,122 105.996415,122 Z" id="Oval" opacity="0.223423549"></path>
                                <path d="M111.836327,138 C147.019443,138 166.81039,129.363709 141.930404,86.2917255 C126.151147,58.9748314 103.480436,32.7949614 83.6388487,26.5986421 C72.1951618,23.0248988 57.46788,36.6191666 44.5984205,36.619344 C9.4153047,36.619344 42.728647,59.1202099 52.1140239,88.5892051 C61.4994009,118.0582 76.6532109,138 111.836327,138 Z" id="Oval" opacity="0.223423549"></path>
                                <path d="M115.015313,152 C165.298106,152 193.582814,140.447065 158.024986,82.8288314 C135.473681,46.2864887 113.512083,9.02189967 85.1550028,0.732962318 C68.7999832,-4.04770387 33.1390298,15.7552305 18.5081594,25.454325 C-28.2915481,56.4787803 26.8127041,67.0053235 40.2260406,106.426574 C53.6393772,145.847824 64.7325188,152 115.015313,152 Z" id="Oval" opacity="0.223423549"></path>
                            </g>
                            <g id="Group-9-Copy" opacity="0.547851562" transform="translate(391.601218, 166.000000)" stroke="#255883" stroke-width="2">
                                <path d="M66.3482467,76.4715103 C80.345765,76.4715103 88.219546,73.0445512 78.3211033,55.9531939 C68.4226606,38.8618367 56.58539,35.4348071 42.5878717,35.4348071 C28.5903534,35.4348071 38.853922,45.1712879 42.5878717,56.8648548 C46.3218214,68.5584217 52.3507284,76.4715103 66.3482467,76.4715103 Z" id="Oval" opacity="0.223423549"></path>
                                <path d="M70.6257883,86.3648548 C92.7971281,86.3648548 105.268787,80.9367301 89.5901695,53.8649106 C79.6465566,36.6955592 65.3601575,20.2408559 52.8565872,16.3463142 C45.6451204,14.1001271 36.364431,22.6444646 28.2544854,22.6445761 C6.08314566,22.6445761 27.0762104,36.7869332 32.9905922,55.308934 C38.9049741,73.8309348 48.4544486,86.3648548 70.6257883,86.3648548 Z" id="Oval" opacity="0.223423549"></path>
                                <path d="M72.1071901,95.3648548 C103.631262,95.3648548 121.363951,88.1165395 99.0714837,51.9668387 C84.9332688,29.0401597 71.1647617,5.66034311 53.3866998,0.459860823 C43.1331564,-2.53953087 20.7760364,9.88483732 11.6034234,15.9700527 C-17.7369777,35.4348071 16.8098378,42.0391641 25.2191355,66.7720708 C33.6284333,91.5049775 40.5831183,95.3648548 72.1071901,95.3648548 Z" id="Oval" opacity="0.223423549"></path>
                            </g>
                            <g id="Group-9-Copy-2" opacity="0.547851562" transform="translate(247.484018, 136.000000)" stroke="#255883" stroke-width="2">
                                <path d="M66.3482467,76.4715103 C80.345765,76.4715103 88.219546,73.0445512 78.3211033,55.9531939 C68.4226606,38.8618367 56.58539,35.4348071 42.5878717,35.4348071 C28.5903534,35.4348071 38.853922,45.1712879 42.5878717,56.8648548 C46.3218214,68.5584217 52.3507284,76.4715103 66.3482467,76.4715103 Z" id="Oval" opacity="0.223423549"></path>
                                <path d="M70.6257883,86.3648548 C92.7971281,86.3648548 105.268787,80.9367301 89.5901695,53.8649106 C79.6465566,36.6955592 65.3601575,20.2408559 52.8565872,16.3463142 C45.6451204,14.1001271 36.364431,22.6444646 28.2544854,22.6445761 C6.08314566,22.6445761 27.0762104,36.7869332 32.9905922,55.308934 C38.9049741,73.8309348 48.4544486,86.3648548 70.6257883,86.3648548 Z" id="Oval" opacity="0.223423549"></path>
                                <path d="M72.1071901,95.3648548 C103.631262,95.3648548 121.363951,88.1165395 99.0714837,51.9668387 C84.9332688,29.0401597 71.1647617,5.66034311 53.3866998,0.459860823 C43.1331564,-2.53953087 20.7760364,9.88483732 11.6034234,15.9700527 C-17.7369777,35.4348071 16.8098378,42.0391641 25.2191355,66.7720708 C33.6284333,91.5049775 40.5831183,95.3648548 72.1071901,95.3648548 Z" id="Oval" opacity="0.223423549"></path>
                            </g>
                            <g id="Group-9-Copy-3" opacity="0.547851562" transform="translate(169.958904, 213.000000)" stroke="#255883" stroke-width="2">
                                <path d="M85.3245477,98 C103.266833,98 113.359595,93.5739906 100.671583,71.5000455 C87.983571,49.4261003 72.8103324,45 54.8680472,45 C36.9257621,45 50.0817995,57.5749255 54.8680472,72.6774799 C59.654295,87.7800344 67.3822626,98 85.3245477,98 Z" id="Oval" opacity="0.223423549"></path>
                                <path d="M90.9282938,111 C119.356251,111 135.347337,104.060124 115.244309,69.448708 C102.494668,47.4976323 84.1767339,26.4602368 68.1447316,21.4810516 C58.8982326,18.6092936 46.9985889,29.5332589 36.6000657,29.5334014 C8.17210806,29.5334014 35.0892886,47.6144544 42.6726732,71.2948969 C50.2560578,94.9753395 62.5003362,111 90.9282938,111 Z" id="Oval" opacity="0.223423549"></path>
                                <path d="M92.6694805,122 C133.183046,122 155.972439,112.72725 127.322988,66.4810357 C109.15308,37.1509975 91.4583065,7.24126157 68.6106022,0.588298703 C55.4331293,-3.24881495 26.7005898,12.6456456 14.9122884,20.4304451 C-22.7949045,45.3316526 21.6033787,53.7805886 32.4106956,85.421329 C43.2180125,117.062069 52.1559152,122 92.6694805,122 Z" id="Oval" opacity="0.223423549"></path>
                            </g>
                            <g id="Group-9-Copy-4" opacity="0.547851562" transform="translate(0.000000, 90.000000)" stroke="#255883" stroke-width="2">
                                <path d="M105.996415,122 C128.350737,122 140.925326,116.571875 125.117311,89.5000558 C109.309296,62.4282363 90.4049334,57 68.0506109,57 C45.6962885,57 62.087417,72.4220784 68.0506109,90.9440792 C74.0138049,109.46608 83.6420924,122 105.996415,122 Z" id="Oval" opacity="0.223423549"></path>
                                <path d="M111.836327,138 C147.019443,138 166.81039,129.363709 141.930404,86.2917255 C126.151147,58.9748314 103.480436,32.7949614 83.6388487,26.5986421 C72.1951618,23.0248988 57.46788,36.6191666 44.5984205,36.619344 C9.4153047,36.619344 42.728647,59.1202099 52.1140239,88.5892051 C61.4994009,118.0582 76.6532109,138 111.836327,138 Z" id="Oval" opacity="0.223423549"></path>
                                <path d="M115.015313,152 C165.298106,152 193.582814,140.447065 158.024986,82.8288314 C135.473681,46.2864887 113.512083,9.02189967 85.1550028,0.732962318 C68.7999832,-4.04770387 33.1390298,15.7552305 18.5081594,25.454325 C-28.2915481,56.4787803 26.8127041,67.0053235 40.2260406,106.426574 C53.6393772,145.847824 64.7325188,152 115.015313,152 Z" id="Oval" opacity="0.223423549"></path>
                            </g>
                            <g id="Group-9-Copy-5" opacity="0.547851562" transform="translate(43.732116, 274.000000)" stroke="#255883" stroke-width="2">
                                <path d="M105.996415,122 C128.350737,122 140.925326,116.571875 125.117311,89.5000558 C109.309296,62.4282363 90.4049334,57 68.0506109,57 C45.6962885,57 62.087417,72.4220784 68.0506109,90.9440792 C74.0138049,109.46608 83.6420924,122 105.996415,122 Z" id="Oval" opacity="0.223423549"></path>
                                <path d="M111.836327,138 C147.019443,138 166.81039,129.363709 141.930404,86.2917255 C126.151147,58.9748314 103.480436,32.7949614 83.6388487,26.5986421 C72.1951618,23.0248988 57.46788,36.6191666 44.5984205,36.619344 C9.4153047,36.619344 42.728647,59.1202099 52.1140239,88.5892051 C61.4994009,118.0582 76.6532109,138 111.836327,138 Z" id="Oval" opacity="0.223423549"></path>
                                <path d="M115.015313,152 C165.298106,152 193.582814,140.447065 158.024986,82.8288314 C135.473681,46.2864887 113.512083,9.02189967 85.1550028,0.732962318 C68.7999832,-4.04770387 33.1390298,15.7552305 18.5081594,25.454325 C-28.2915481,56.4787803 26.8127041,67.0053235 40.2260406,106.426574 C53.6393772,145.847824 64.7325188,152 115.015313,152 Z" id="Oval" opacity="0.223423549"></path>
                            </g>
                        </g>
                    </g>
                </g>
            </g>
        </g>
    </g>
</svg>