<?xml version="1.0" encoding="UTF-8"?>
<svg width="1784px" height="1214px" viewBox="0 0 1784 1214" version="1.1" xmlns="http://www.w3.org/2000/svg" xmlns:xlink="http://www.w3.org/1999/xlink">
    <title>@0.5xGroup 17</title>
    <g id="Page-1" stroke="none" stroke-width="1" fill="none" fill-rule="evenodd" opacity="0.223423549">
        <g id="About" transform="translate(131.000000, -1131.000000)" stroke="#255883" stroke-width="3">
            <g id="Group-17" transform="translate(0.000000, 1540.000000)">
                <path d="M426.213181,267.357403 C559.303904,267.357403 551.957231,298.225197 591.416901,524.006318 C630.876571,749.787439 534.728835,803 401.638112,803 C268.547389,803 403.677419,604.06687 320.531263,532.481933 C237.385108,460.896995 293.122458,267.357403 426.213181,267.357403 Z M425.000283,320.973914 C315.333969,320.973914 269.406577,480.263226 337.918733,539.180068 C406.430889,598.09691 295.084193,761.825654 404.750507,761.825654 C514.416821,761.825654 577.641318,683.132064 577.641318,533.656614 C577.641318,384.181165 534.666597,320.973914 425.000283,320.973914 Z M810.363744,47.6139661 C973.910965,47.6139661 964.883078,85.5251687 1013.3727,362.824992 C1061.86233,640.124814 943.712134,705.47941 780.164913,705.47941 C616.617692,705.47941 782.670895,461.153748 680.497563,373.234571 C578.324231,285.315393 646.816523,47.6139661 810.363744,47.6139661 Z M444.002989,366.774024 C525.18927,366.774024 557.003578,413.630266 557.003578,524.438089 C557.003578,635.245912 510.198305,693.58235 429.012023,693.58235 C347.825741,693.58235 430.256015,572.208401 379.536272,528.532687 C328.81653,484.856973 362.816707,366.774024 444.002989,366.774024 Z M1217.57293,156.317386 C1350.66366,156.317386 1343.31698,187.18518 1382.77665,412.9663 C1422.23632,638.747421 1326.08859,691.959983 1192.99786,691.959983 C1059.90714,691.959983 1195.03717,493.026853 1111.89101,421.441915 C1028.74486,349.856978 1084.48221,156.317386 1217.57293,156.317386 Z M808.92728,113.127537 C674.263497,113.127537 617.867363,308.910376 701.99626,381.325194 C786.125158,453.740013 649.397965,654.979366 784.061747,654.979366 C918.72553,654.979366 996.361493,558.256904 996.361493,374.536305 C996.361493,190.815706 943.591063,113.127537 808.92728,113.127537 Z M1216.36003,209.933897 C1106.69372,209.933897 1060.76633,369.223209 1129.27848,428.140051 C1197.79064,487.056893 1086.44394,650.785636 1196.11026,650.785636 C1305.77657,650.785636 1369.00107,572.092047 1369.00107,422.616597 C1369.00107,273.141148 1326.02635,209.933897 1216.36003,209.933897 Z M461.747643,390.195349 C401.669072,390.195349 376.508638,477.484047 414.041699,509.76972 C451.57476,542.055393 390.575624,631.776642 450.654195,631.776642 C510.732766,631.776642 554.134878,607.777133 536.322363,505.947115 C518.509847,404.117097 521.826214,390.195349 461.747643,390.195349 Z M481.696381,416.61367 C508.815181,416.61367 504.334034,505.67695 512.374406,551.701817 C520.414777,597.726684 500.823546,608.573919 473.704747,608.573919 C446.585947,608.573919 445.808552,487.294169 428.866545,472.701775 C411.924538,458.10938 454.577582,416.61367 481.696381,416.61367 Z M1235.36274,255.734007 C1316.54902,255.734007 1348.36333,302.590249 1348.36333,413.398072 C1348.36333,524.205895 1301.55806,582.542333 1220.37177,582.542333 C1139.18549,582.542333 1221.61577,461.168384 1170.89602,417.49267 C1120.17628,373.816956 1154.17646,255.734007 1235.36274,255.734007 Z M484.884387,457.559652 C468.769969,457.559652 443.42486,482.04803 453.492067,490.659621 C463.559274,499.271212 464.021214,570.843535 480.135632,570.843535 C496.250049,570.843535 507.891467,564.442122 503.113751,537.280896 C501.775991,529.675753 501.021565,520.079344 500.274942,510.203022 L500.114861,508.083007 C500.088131,507.729165 500.061358,507.375121 500.034517,507.020955 L499.872435,504.895103 C499.835958,504.420278 499.799265,503.945511 499.762291,503.470991 L499.650463,502.048358 C497.845734,479.304059 495.24918,457.559652 484.884387,457.559652 Z M832.749834,169.087046 C932.336524,169.087046 971.361363,226.619342 971.361363,362.674395 C971.361363,498.729449 913.947941,570.357669 814.361251,570.357669 C714.774562,570.357669 815.887186,421.32903 753.672104,367.701936 C691.457021,314.074841 733.163144,169.087046 832.749834,169.087046 Z M1253.10739,279.155332 C1193.02882,279.155332 1167.86839,366.44403 1205.40145,398.729703 C1242.93451,431.015376 1181.93537,520.736625 1242.01395,520.736625 C1302.09252,520.736625 1345.49463,496.737116 1327.68211,394.907098 C1309.8696,293.07708 1313.18597,279.155332 1253.10739,279.155332 Z M1273.05613,305.573653 C1300.17493,305.573653 1295.69379,394.636933 1303.73416,440.661799 C1311.77453,486.686666 1292.1833,497.533902 1265.0645,497.533902 C1237.9457,497.533902 1237.1683,376.254152 1220.2263,361.661758 C1203.28429,347.069363 1245.93733,305.573653 1273.05613,305.573653 Z M854.734658,197.749233 C780.888081,197.749233 749.961714,305.257348 796.096102,345.021623 C842.230489,384.785898 767.252384,495.290036 841.098961,495.290036 C914.945538,495.290036 968.293968,465.731318 946.399418,340.313556 C924.504867,214.895794 928.581235,197.749233 854.734658,197.749233 Z M49.0041492,-168.913873 C212.55137,-168.913873 203.523483,-131.00267 252.013109,146.297153 C300.502734,423.596976 182.352539,488.951571 18.8053182,488.951571 C-144.741903,488.951571 21.3113003,244.62591 -80.8620318,156.706732 C-183.035364,68.7875548 -114.543072,-168.913873 49.0041492,-168.913873 Z M879.27935,230.506019 C912.724367,230.506019 907.197868,340.058828 917.11388,396.671985 C927.029893,453.285143 902.86846,466.627848 869.423443,466.627848 C835.978426,466.627848 835.019682,317.446981 814.125479,299.497521 C793.231276,281.548061 845.834333,230.506019 879.27935,230.506019 Z M1276.24414,346.519635 C1260.12972,346.519635 1234.78461,371.008013 1244.85182,379.619604 C1254.91902,388.231195 1255.38097,459.803518 1271.49538,459.803518 C1287.6098,459.803518 1299.25122,453.402104 1294.4735,426.240879 C1292.99241,417.820899 1292.22635,406.960095 1291.39427,395.980938 L1291.23219,393.855085 C1291.19571,393.38026 1291.15902,392.905494 1291.12204,392.430974 L1291.01021,391.008341 C1290.95382,390.297582 1290.89665,389.587799 1290.83849,388.879625 L1290.7208,387.465612 C1288.91394,366.057985 1286.0691,346.519635 1276.24414,346.519635 Z M47.5676856,-103.400301 C-87.0960971,-103.400301 -143.492232,92.3825373 -59.3633345,164.797356 C24.765563,237.212174 -111.96163,438.451527 22.7021526,438.451527 C157.365935,438.451527 235.001899,341.729066 235.001899,158.008466 C235.001899,-25.7121327 182.231468,-103.400301 47.5676856,-103.400301 Z M882.676358,281.006063 C862.913394,281.006063 831.829769,311.100215 844.176343,321.683134 C856.522918,332.266053 857.089449,420.222402 876.852413,420.222402 C896.615378,420.222402 910.892588,412.355604 905.033126,378.976749 C903.275288,368.963092 902.33871,356.140268 901.355242,343.095005 L901.157666,340.483754 L901.157666,340.483754 L900.957296,337.871169 C898.732203,309.142265 895.719915,281.006063 882.676358,281.006063 Z M71.3902394,-47.4407926 C170.976929,-47.4407926 210.001768,10.0915035 210.001768,146.146557 C210.001768,282.20161 152.588346,353.829831 53.0016566,353.829831 C-46.585033,353.829831 54.5275918,204.801192 -7.68749103,151.174097 C-69.9025739,97.5470023 -28.1964502,-47.4407926 71.3902394,-47.4407926 Z M1609.44881,-9.63398689 C1703.10733,184.110903 1626.09256,278.997049 1501.02819,341.12503 C1375.96382,403.253011 1453.0938,153.236913 1357.02348,124.782414 C1260.95316,96.327916 1264.8301,-111.558255 1389.89447,-173.686236 C1514.95884,-235.814217 1515.79029,-203.378877 1609.44881,-9.63398689 Z M1402.19049,-122.737003 C1299.13786,-71.5437533 1295.89656,99.578569 1375.0409,122.960182 C1454.18524,146.341796 1390.58238,352.174156 1493.635,300.980905 C1596.68763,249.787655 1636.37939,146.32609 1598.92232,5.86511266 C1561.46525,-134.595864 1505.24311,-173.930254 1402.19049,-122.737003 Z M93.3750632,-18.7786052 C19.5284863,-18.7786052 -11.3978803,88.7295092 34.7365069,128.493785 C80.8708941,168.25806 5.89278967,278.762197 79.7393665,278.762197 C153.585943,278.762197 206.934373,249.20348 185.039823,123.785717 C163.145273,-1.63204472 167.22164,-18.7786052 93.3750632,-18.7786052 Z M117.919755,13.9781804 C151.364772,13.9781804 145.838273,123.53099 155.754286,180.144147 C165.670299,236.757304 141.508865,250.10001 108.063849,250.10001 C74.6188317,250.10001 73.6600869,100.919143 52.7658841,82.9696824 C31.8716812,65.0202219 84.4747383,13.9781804 117.919755,13.9781804 Z M1577.21912,6.83642059 C1604.98646,110.961714 1575.62243,187.629169 1499.33228,225.527677 C1423.04213,263.426184 1470.08614,110.892766 1411.48047,93.5274648 C1352.8748,76.1621636 1355.23409,-50.6711095 1431.52424,-88.569617 C1507.81439,-126.468124 1549.45177,-97.288873 1577.21912,6.83642059 Z M450.213306,-323.629604 C583.30403,-323.629604 575.957356,-292.76181 615.417026,-66.980689 C654.876696,158.800432 558.72896,212.012993 425.638237,212.012993 C292.547514,212.012993 427.677544,13.0798632 344.531389,-58.5050741 C261.385233,-130.090011 317.122583,-323.629604 450.213306,-323.629604 Z M121.316764,64.4782248 C101.553799,64.4782248 70.4701744,94.5723765 82.8167488,105.155295 C95.1633232,115.738214 95.7298542,203.694564 115.492819,203.694564 C135.255783,203.694564 149.532994,195.827766 143.673532,162.44891 C137.81407,129.070055 141.079728,64.4782248 121.316764,64.4782248 Z M449.000408,-270.013092 C339.334094,-270.013092 293.406703,-110.72378 361.918859,-51.8069383 C430.431015,7.10990379 319.084318,170.838647 428.750632,170.838647 C538.416947,170.838647 601.641444,92.1450574 601.641444,-57.3303923 C601.641444,-206.805842 558.666722,-270.013092 449.000408,-270.013092 Z M1454.06792,-74.84414 C1397.61253,-46.7989072 1395.8431,46.9706416 1439.20312,59.7884955 C1482.56314,72.6063493 1447.72598,185.391776 1504.18137,157.346543 C1560.63676,129.30131 1595.40736,86.4886223 1553.15145,-0.885326469 C1510.89555,-88.2592753 1510.52331,-102.889373 1454.06792,-74.84414 Z M969.892166,-378.416578 C1094.95654,-440.544559 1095.78799,-408.109194 1189.44656,-214.364122 C1283.10513,-20.6190494 1206.09037,74.2671388 1081.026,136.39512 C955.961632,198.523101 1033.09157,-51.4931573 937.021231,-79.9477135 C840.950895,-108.40227 844.827795,-316.288596 969.892166,-378.416578 Z M1542.11343,53.2892549 C1561.20229,92.7851628 1545.51076,112.123598 1520.02743,124.782905 C1494.54409,137.442211 1463.42207,23.8394206 1443.84509,18.0357405 C1424.2681,12.2320604 1453.95043,-46.6719876 1479.43377,-59.3312941 C1504.9171,-71.9906006 1523.02458,13.7933469 1542.11343,53.2892549 Z M982.18916,-327.463673 C879.136534,-276.270422 875.894916,-105.149271 955.039146,-81.7680907 C1034.18338,-58.3869104 970.580188,147.444246 1073.63281,96.2509957 C1176.68544,45.0577456 1216.37735,-58.4032415 1178.92058,-198.86312 C1141.4638,-339.322998 1085.24179,-378.656923 982.18916,-327.463673 Z M468.003114,-224.212982 C549.189396,-224.212982 581.003703,-177.35674 581.003703,-66.5489175 C581.003703,44.2589054 534.19843,102.595344 453.012148,102.595344 C371.825866,102.595344 454.25614,-18.7786052 403.536397,-62.4543193 C352.816655,-106.130033 386.816832,-224.212982 468.003114,-224.212982 Z M1492.69017,-22.3428474 C1477.54757,-14.8204884 1459.86751,20.0223916 1471.48556,23.4151747 C1483.10362,26.8079577 1501.47302,93.8483038 1516.61562,86.3259447 C1531.75822,78.8035857 1541.09344,67.3539028 1529.79753,44.0609811 C1526.52171,37.3060339 1523.29863,28.2517636 1520.00388,18.9833316 L1519.32115,17.0633532 C1511.457,-5.03580984 1503.13856,-27.5332752 1492.69017,-22.3428474 Z M485.747768,-200.791658 C425.669197,-200.791658 400.508763,-113.502959 438.041824,-81.2172864 C475.574885,-48.9316134 414.575749,40.7896358 474.65432,40.7896358 C534.732891,40.7896358 578.135003,16.7901266 560.322488,-85.0398913 C542.509973,-186.869909 545.826339,-200.791658 485.747768,-200.791658 Z M1011.52205,-293.299527 C1087.8122,-331.198034 1129.44958,-302.018783 1157.21693,-197.893489 C1184.98427,-93.7681958 1155.62023,-17.1007405 1079.33008,20.797767 C1003.03994,58.6962745 1050.08394,-93.8371439 991.478275,-111.202445 C932.872606,-128.567746 935.231903,-255.401019 1011.52205,-293.299527 Z M505.696506,-174.373337 C532.815306,-174.373337 528.334159,-85.3100568 536.374531,-39.28519 C544.414902,6.73967688 524.823671,17.5869127 497.704872,17.5869127 C470.586072,17.5869127 469.808677,-103.692837 452.86667,-118.285232 C435.924664,-132.877627 478.577707,-174.373337 505.696506,-174.373337 Z M508.884512,-133.427355 C492.770094,-133.427355 467.424985,-108.938976 477.492192,-100.327386 C482.022435,-96.4521697 484.607612,-79.8274055 487.549334,-62.7124176 L487.943878,-60.4285905 C491.451255,-40.248137 495.595116,-20.1434713 504.135757,-20.1434713 C520.250174,-20.1434713 531.891592,-26.5448851 527.113876,-53.7061108 C525.632785,-62.1260907 524.866723,-72.9868947 524.034642,-83.9660516 L523.87256,-86.091904 C523.836084,-86.5667291 523.79939,-87.0414955 523.762416,-87.5160154 L523.650588,-88.9386485 C521.845859,-111.682947 519.249305,-133.427355 508.884512,-133.427355 Z M1034.06573,-279.57405 C977.610336,-251.528817 975.840914,-157.759268 1019.20093,-144.941414 C1062.56095,-132.123561 1027.72379,-19.3381338 1084.17918,-47.3833667 C1140.63457,-75.4285995 1175.40517,-118.241288 1133.14926,-205.615236 C1090.89336,-292.989185 1090.52112,-307.619283 1034.06573,-279.57405 Z M1059.43158,-264.061204 C1084.91491,-276.720511 1103.02239,-190.936563 1122.11124,-151.440655 C1141.2001,-111.944747 1125.50857,-92.6063117 1100.02524,-79.9470052 C1074.5419,-67.2876987 1043.41988,-180.890489 1023.84289,-186.694169 C1004.26591,-192.49785 1033.94824,-251.401898 1059.43158,-264.061204 Z M1072.68798,-227.072757 C1057.54538,-219.550398 1039.86531,-184.707518 1051.48337,-181.314735 C1063.10143,-177.921952 1081.47083,-110.881606 1096.61343,-118.403965 C1111.75603,-125.926324 1121.09125,-137.376007 1109.79533,-160.668929 C1106.18064,-168.122664 1102.63016,-178.37605 1098.97675,-188.627555 L1098.29049,-190.549007 C1090.72744,-211.669681 1082.6821,-232.037514 1072.68798,-227.072757 Z" id="Combined-Shape"></path>
            </g>
        </g>
    </g>
</svg>