<?xml version="1.0" encoding="UTF-8"?>
<svg width="50px" height="50px" viewBox="0 0 50 50" version="1.1" xmlns="http://www.w3.org/2000/svg" xmlns:xlink="http://www.w3.org/1999/xlink">
    <title>@0.5xGroup 6</title>
    <g id="Page-1" stroke="none" stroke-width="1" fill="none" fill-rule="evenodd">
        <g id="Donate" transform="translate(-854.000000, -1396.000000)" fill-rule="nonzero">
            <g id="Group-6" transform="translate(854.000000, 1396.000000)">
                <polygon id="Path" fill="#8DC34D" points="6 19 6 15.4679093 28 6 50 15.4678083 50 19"></polygon>
                <path d="M14.8292683,39 L14.8292683,42 L8,42 L8,39 L14.8292683,39 Z M48,39 L48,42 L41.1707317,42 L41.1707317,39 L48,39 Z" id="Combined-Shape" fill="#4B92CF"></path>
                <polygon id="Path" fill="#4B92CF" points="49 45 49 48 5 48 5 45"></polygon>
                <path d="M24.4385742,0.111840984 C24.7980469,-0.037280328 25.2019531,-0.037280328 25.5614258,0.111840984 L25.5614258,0.111840984 L49.096582,9.87748029 C49.6435547,10.1043361 50,10.6383212 50,11.230412 L50,11.230412 L50,17.0897955 C50,17.8987811 49.3441406,18.5546414 48.5351562,18.5546414 L48.5351562,18.5546414 L45.9960938,18.5546414 L45.9960938,35.1562283 L46.484375,35.1562283 C47.2933594,35.1562283 47.9492188,35.8120886 47.9492188,36.6210742 L47.9492188,36.6210742 L47.9492188,41.0156118 L48.5351562,41.0156118 C49.3441406,41.0156118 50,41.6714722 50,42.4804577 L50,42.4804577 L50,48.5351541 C50,49.3441397 49.3441406,50 48.5351563,50 L48.5351563,50 L1.46484375,50 C0.655859375,50 3.55271368e-15,49.3441397 3.55271368e-15,48.5351541 L3.55271368e-15,48.5351541 L3.55271368e-15,42.4804577 C3.55271368e-15,41.6714722 0.655859375,41.0156118 1.46484375,41.0156118 L1.46484375,41.0156118 L2.05078125,41.0156118 L2.05078125,36.6210742 C2.05078125,35.8120886 2.70664063,35.1562283 3.515625,35.1562283 L3.515625,35.1562283 L4.00390625,35.1562283 L4.00390625,18.5546414 L1.46484375,18.5546414 C0.655859375,18.5546414 3.55271368e-15,17.8987811 3.55271368e-15,17.0897955 L3.55271368e-15,17.0897955 L3.55271368e-15,11.230412 C3.55271368e-15,10.6383212 0.356445313,10.1043361 0.903417969,9.87748029 L0.903417969,9.87748029 Z M47.0703125,43.9453036 L2.9296875,43.9453036 L2.9296875,47.0703082 L47.0703125,47.0703082 L47.0703125,43.9453036 Z M11.8164062,38.08592 L4.98046875,38.08592 L4.98046875,41.0156118 L11.8164062,41.0156118 L11.8164062,38.08592 Z M37.2070312,18.5546414 L12.7929688,18.5546414 L12.7929688,35.1562283 L13.28125,35.1562283 C14.0902344,35.1562283 14.7460938,35.8120886 14.7460938,36.6210742 L14.7460938,36.6210742 L14.7460938,41.0156118 L35.2539062,41.0156118 L35.2539062,36.6210742 C35.2539062,35.8120886 35.9097656,35.1562283 36.71875,35.1562283 L36.71875,35.1562283 L37.2070312,35.1562283 L37.2070312,18.5546414 Z M45.0195312,38.08592 L38.1835938,38.08592 L38.1835938,41.0156118 L45.0195312,41.0156118 L45.0195312,38.08592 Z M25,20.5077693 C25.8089844,20.5077693 26.4648438,21.1636296 26.4648438,21.9726152 L26.4648438,21.9726152 L26.4648438,22.7128507 C28.1698242,23.317539 29.3945312,24.9457641 29.3945312,26.8554348 C29.3945312,27.6644204 28.7386719,28.3202807 27.9296875,28.3202807 C27.1207031,28.3202807 26.4648438,27.6644204 26.4648438,26.8554348 C26.4648438,26.0477188 25.8077148,25.390589 25,25.390589 C24.1922852,25.390589 23.5351562,26.0477188 23.5351562,26.8554348 C23.5351562,27.6631509 24.1922852,28.3202807 25,28.3202807 C27.4231445,28.3202807 29.3945312,30.2916703 29.3945312,32.7148184 C29.3945312,34.6244892 28.1698242,36.2527142 26.4648438,36.8574026 L26.4648438,36.8574026 L26.4648438,37.5976381 C26.4648438,38.4066236 25.8089844,39.062484 25,39.062484 C24.1910156,39.062484 23.5351562,38.4066236 23.5351562,37.5976381 L23.5351562,37.5976381 L23.5351562,36.8574026 C21.8301758,36.2527142 20.6054688,34.6244892 20.6054688,32.7148184 C20.6054688,31.9058329 21.2613281,31.2499725 22.0703125,31.2499725 C22.8792969,31.2499725 23.5351562,31.9058329 23.5351562,32.7148184 C23.5351562,33.5225345 24.1922852,34.1796643 25,34.1796643 C25.8077148,34.1796643 26.4648438,33.5225345 26.4648438,32.7148184 C26.4648438,31.9071024 25.8077148,31.2499725 25,31.2499725 C22.5768555,31.2499725 20.6054688,29.2785829 20.6054688,26.8554348 C20.6054688,24.9457641 21.8301758,23.317539 23.5351562,22.7128507 L23.5351562,22.7128507 L23.5351562,21.9726152 C23.5351562,21.1636296 24.1910156,20.5077693 25,20.5077693 Z M9.86328125,18.5546414 L6.93359375,18.5546414 L6.93359375,35.1562283 L9.86328125,35.1562283 L9.86328125,18.5546414 Z M43.0664062,18.5546414 L40.1367188,18.5546414 L40.1367188,35.1562283 L43.0664062,35.1562283 L43.0664062,18.5546414 Z M25,3.05071248 L2.9296875,12.2085384 L2.9296875,15.6249496 L47.0703125,15.6249496 L47.0703125,12.2084407 L25,3.05071248 Z M33.7890625,9.76556606 C34.5980469,9.76556606 35.2539062,10.4214264 35.2539062,11.230412 C35.2539062,12.0393975 34.5980469,12.6952579 33.7890625,12.6952579 L33.7890625,12.6952579 L16.2109375,12.6952579 C15.4019531,12.6952579 14.7460938,12.0393975 14.7460938,11.230412 C14.7460938,10.4214264 15.4019531,9.76556606 16.2109375,9.76556606 L16.2109375,9.76556606 Z" id="Combined-Shape" fill="#4C4C78"></path>
            </g>
        </g>
    </g>
</svg>