<?xml version="1.0" encoding="UTF-8"?>
<svg width="46px" height="50px" viewBox="0 0 46 50" version="1.1" xmlns="http://www.w3.org/2000/svg" xmlns:xlink="http://www.w3.org/1999/xlink">
    <title>@0.5xGroup 7</title>
    <g id="Page-1" stroke="none" stroke-width="1" fill="none" fill-rule="evenodd">
        <g id="Donate" transform="translate(-1144.000000, -1396.000000)" fill-rule="nonzero">
            <g id="Group-7" transform="translate(1144.000000, 1396.000000)">
                <path d="M20.5290521,4.54806034 C20.8701961,4.19465947 21.3237263,4 21.8061501,4 C22.2885739,4 22.7421041,4.19465947 23.0832481,4.54806034 L24.5003306,6.01616019 L25.9175128,4.54806034 C26.2586568,4.19465947 26.712187,4 27.1946108,4 C27.6770346,4 28.1306644,4.19465947 28.4718084,4.54806034 C29.1702369,5.27158255 29.1760157,6.44500966 28.4891446,7.17585998 L24.5004303,11 L20.5116163,7.17585998 C20.181432,6.82462659 20,6.36233615 20,5.87104289 C20,5.37128618 20.1878085,4.9014612 20.5290521,4.54806034 Z" id="Path" fill="#8DC34D"></path>
                <polygon id="Path" fill="#4B92CF" points="39.1840948 29 42 33.6334731 28.8159052 36 26 31.3665269"></polygon>
                <polygon id="Path" fill="#4B92CF" points="8.81590516 29 22 31.3665269 19.1840948 36 6 33.6335707"></polygon>
                <path d="M26.6832237,14.4839589 L46,17.9720291 L40.9358132,26.354525 L46,34.7370209 L40.6907957,35.6957399 L40.6907957,46.8054411 L23,50 L5.30920434,46.8054411 L5.30920434,35.6957399 L3.90798505e-14,34.7370209 L5.06418682,26.354525 L3.90798505e-14,17.9720291 L19.3167763,14.4839589 L23,20.5805414 L26.6832237,14.4839589 Z M21.525767,34.56884 L19.3167763,38.2251887 L8.25767028,36.228199 L8.25767028,44.3616934 L21.525767,46.7575149 L21.525767,34.56884 Z M24.474233,34.56884 L24.474233,46.7574173 L37.7423297,44.3615958 L37.7423297,36.228199 L26.6832237,38.2251887 L24.474233,34.56884 Z M38.4770874,27.9762067 L25.3607384,30.3446001 L28.1621742,34.9817275 L41.2785232,32.6133342 L38.4770874,27.9762067 Z M7.52291257,27.9762067 L4.7214768,32.6134318 L17.8378258,34.9817275 L20.6392616,30.3446001 L7.52291257,27.9762067 Z M23,24.9143966 L15.0245962,26.354525 L23,27.7946534 L30.9754038,26.354525 L23,24.9143966 Z M28.1621742,17.7272248 L25.3607384,22.3643523 L38.4770874,24.7327456 L41.2785232,20.0956181 L28.1621742,17.7272248 Z M17.8378258,17.7272248 L4.7214768,20.0957157 L7.52291257,24.7328432 L20.6392616,22.3643523 L17.8378258,17.7272248 Z M25.6577472,5.32907052e-15 C26.9211649,5.32907052e-15 28.1090035,0.488632415 29.0023887,1.37609664 C29.8957739,2.26336565 30.3877745,3.44307227 30.3877745,4.69784049 C30.3877745,5.95260871 29.8957739,7.13231533 29.0023887,8.01958434 L29.0023887,8.01958434 L28.9613067,8.0588233 L23,13.5381243 L16.9976113,8.01948673 C15.1533459,6.18794485 15.1533459,3.20763852 16.9976113,1.37599903 C17.8910948,0.488632415 19.0789334,5.32907052e-15 20.3423511,5.32907052e-15 C21.304239,5.32907052e-15 22.222293,0.283164729 23,0.809962401 C23.7778053,0.283262339 24.695761,5.32907052e-15 25.6577472,5.32907052e-15 Z M25.6577472,2.92828055 C25.1818648,2.92828055 24.7344842,3.11237179 24.397966,3.44658621 L24.397966,3.44658621 L23,4.83498163 L21.6021323,3.44658621 C21.2656141,3.11237179 20.8182335,2.92828055 20.3423511,2.92828055 C19.8664687,2.92828055 19.4190881,3.11237179 19.0825699,3.44658621 C18.7459533,3.78080063 18.5606914,4.2251184 18.5606914,4.69774288 C18.5606914,5.1623634 18.7396633,5.59955568 19.0653705,5.93172031 L19.0653705,5.93172031 L23.0000983,9.5482444 L26.9347278,5.93172031 C27.6122853,5.24054849 27.6065849,4.13082777 26.9176267,3.44658621 C26.5811085,3.11237179 26.1336296,2.92828055 25.6577472,2.92828055 Z" id="Combined-Shape" fill="#4C4C78"></path>
            </g>
        </g>
    </g>
</svg>