<?xml version="1.0" encoding="UTF-8"?>
<svg width="52px" height="50px" viewBox="0 0 52 50" version="1.1" xmlns="http://www.w3.org/2000/svg" xmlns:xlink="http://www.w3.org/1999/xlink">
    <title>@0.5xGroup 5</title>
    <g id="Page-1" stroke="none" stroke-width="1" fill="none" fill-rule="evenodd">
        <g id="Donate" transform="translate(-245.000000, -1391.000000)">
            <g id="Group-5" transform="translate(245.000000, 1391.000000)">
                <polygon id="Path-7" fill="#4A92CF" points="18 18.4173626 35.0898372 5 52 19.4965012 35.15318 33"></polygon>
                <polygon id="Path-6" fill="#8DC34C" points="5 29 43 29 24 43"></polygon>
                <path d="M29.4921875,0 L50,16.0688477 L50,42.1366211 L41.015625,42.1366211 L41.015625,50 L0,50 L0,23.8636719 L8.984375,23.8636719 L8.984375,16.0688477 L29.4921875,0 Z M38.0859375,28.5043945 L20.5078125,42.8178711 L2.9296875,28.5043945 L2.9296875,47.0743164 L38.0859375,47.0743164 L38.0859375,28.5043945 Z M47.0703125,20.7261719 L41.015625,25.6253906 L41.015625,39.2109375 L47.0703125,39.2109375 L47.0703125,20.7261719 Z M35.5560547,26.7893555 L5.45957031,26.7893555 L20.5078125,39.0427734 L35.5560547,26.7893555 Z M11.9140625,20.7262695 L11.9140625,23.8636719 L15.7915039,23.8636719 L11.9140625,20.7262695 Z M29.4921875,3.71875 L12.2476562,17.2306641 L20.4451172,23.8636719 L38.5391602,23.8636719 L46.7366211,17.2306641 L29.4921875,3.71875 Z" id="Combined-Shape" fill="#4C4C78" fill-rule="nonzero"></path>
            </g>
        </g>
    </g>
</svg>