<?xml version="1.0" encoding="UTF-8"?>
<svg width="50px" height="50px" viewBox="0 0 50 50" version="1.1" xmlns="http://www.w3.org/2000/svg" xmlns:xlink="http://www.w3.org/1999/xlink">
    <title>@0.5xGroup 4</title>
    <g id="Page-1" stroke="none" stroke-width="1" fill="none" fill-rule="evenodd">
        <g id="Donate" transform="translate(-549.000000, -1391.000000)">
            <g id="Group-4" transform="translate(549.000000, 1391.000000)">
                <path d="M25.8333333,14.7216058 C20.3762347,7.10784314 15.3354895,4.56992225 10.7110976,7.10784314 C3.7745098,10.9147245 5.73529412,18.0791038 5.73529412,21.9934641 C5.73529412,24.6030376 11.9444444,30.8720597 24.3627451,40.8005305 L45.9313725,21.9934641 C49.1993464,15.6124354 48.3954423,10.6505617 43.5196602,7.10784314 C38.6438782,3.56512454 32.7484359,6.10304543 25.8333333,14.7216058 Z" id="Path-8" fill="#FFBEBE" opacity="0.379952567"></path>
                <path d="M6.69799194,29.5533696 L4.63979758,18.4151845 C4.45713319,17.4270692 5.07508915,16.4620653 6.04646946,16.2183172 C6.91636955,16.0000308 7.80471173,16.4097706 8.20594888,17.2150504 L11.7179449,24.2643573 C11.4877604,25.6678924 11.9095864,27.1592709 12.9860572,28.2395385 L17.1967055,32.4654209 L19.2666091,30.3880283 L15.1129459,26.2287384 C14.4800606,25.5949344 14.4794752,24.5660801 15.1116774,23.9315906 C15.7450505,23.2959259 16.7725377,23.2978845 17.4034714,23.9358995 L22.5181717,29.1080811 C24.2449942,30.9178305 25.1960784,33.2945956 25.1960784,35.8005305 L25.1960784,46.2254902 L16.6743751,46.2254902 L16.6743751,39.312502 L6.69799194,29.5533696 Z" id="Path" fill="#8DC34D" fill-rule="nonzero"></path>
                <path d="M36.6590155,47.8921569 L28.1372549,47.8921569 L28.1372549,37.4672066 C28.1372549,34.9613719 29.0883347,32.584609 30.8152465,30.7747632 L35.9869074,25.5520544 C36.6179357,24.9147255 37.6448326,24.9131586 38.2778124,25.5485289 C38.9103043,26.1833117 38.9093286,27.2127526 38.2756657,27.8463602 L34.0667938,32.0547093 L36.1366876,34.1321 L40.3473159,29.9062214 C41.2064785,29.0439471 41.6796277,27.8974797 41.6796277,26.6780544 C41.6796277,26.42373 41.6578681,26.1729311 41.6174714,25.9269307 L45.1273041,18.8818412 C45.5285393,18.0765622 46.4163894,17.6666269 47.2867733,17.8850109 C48.2582466,18.1287589 48.8761996,19.0936639 48.6935361,20.0818763 L48.6936336,20.0818763 L46.6353514,31.2201492 L36.6589179,40.9792729 L36.6589179,47.8921569 L36.6590155,47.8921569 Z" id="Path" fill="#4B92CF" fill-rule="nonzero"></path>
                <path d="M5.43545353,3.42748921 C10.0051235,-1.14254524 17.440542,-1.14244757 22.010212,3.42748921 L22.010212,3.42748921 L24.999985,6.41756453 L27.9897579,3.42758688 C32.559428,-1.1423499 39.9947487,-1.1423499 44.5644187,3.42748921 C46.7780129,5.64130719 47.9971645,8.58469768 47.9971645,11.7156088 C47.9971645,12.7743191 47.8572218,13.8114451 47.5871022,14.8062812 C49.3133872,15.8066843 50.2990406,17.8175502 49.9188614,19.868362 L49.9188614,19.868362 L47.6892515,31.8913655 L37.9233434,41.4111637 L37.9233434,50 L12.0767242,50 L12.0767242,41.4112613 L2.31081605,31.8914631 L0.0812061544,19.8684596 C-0.29916836,17.8176479 0.686582693,15.8068796 2.41277009,14.8063788 C2.14265048,13.8114451 2.00270781,12.7743191 2.00270781,11.7156088 C2.00270781,8.58479535 3.2218594,5.64130719 5.43545353,3.42748921 Z M45.6201066,17.0516776 C44.7497227,16.8332935 43.8618726,17.2432288 43.4606374,18.0485078 L43.4606374,18.0485078 L39.9508047,25.0935974 C39.9912014,25.3395978 40.012961,25.5903967 40.012961,25.8447211 C40.012961,27.0641464 39.5398118,28.2106138 38.6806492,29.0728881 L38.6806492,29.0728881 L34.4700209,33.2987667 L32.4001271,31.221376 L36.608999,27.0130269 C37.2426619,26.3794193 37.2436377,25.3499784 36.6111457,24.7151956 C35.9781659,24.0798253 34.951269,24.0813922 34.3202407,24.7187211 L34.3202407,24.7187211 L29.1485798,29.9414299 C27.421668,31.7512756 26.4705882,34.1280385 26.4705882,36.6338733 L26.4705882,36.6338733 L26.4705882,47.0588235 L34.9922512,47.0588235 L34.9922512,40.1459396 L44.9686848,30.3868159 L47.026967,19.248543 L47.0491229,19.0928049 C47.143506,18.1607593 46.5404497,17.2825967 45.6201066,17.0516776 Z M6.53928221,18.0483837 C6.13804506,17.243104 5.24970289,16.8333642 4.37980279,17.0516505 C3.40842248,17.2953987 2.79046653,18.2604025 2.97313091,19.2485178 L2.97313091,19.2485178 L5.03132527,30.3867029 L15.0077084,40.1458354 L15.0077084,47.0588235 L23.5294118,47.0588235 L23.5294118,36.6338639 C23.5294118,34.1279289 22.5783275,31.7511639 20.8515051,29.9414144 L20.8515051,29.9414144 L15.7368047,24.7692329 C15.105871,24.1312178 14.0783839,24.1292592 13.4450107,24.7649239 C12.8128085,25.3994135 12.813394,26.4282678 13.4462792,27.0620718 L13.4462792,27.0620718 L17.5999424,31.2213617 L15.5300388,33.2987542 L11.3193906,29.0728718 C10.2429197,27.9926042 9.82109376,26.5012257 10.0512782,25.0976906 L10.0512782,25.0976906 Z M42.5194841,5.50543492 C39.08679,2.0863587 33.5015834,2.08645613 30.0690848,5.50553234 L30.0690848,5.50553234 L25,10.5549391 L19.931013,5.50553234 C18.2147148,3.79589681 15.9601907,2.94117647 13.7056666,2.94117647 C11.4511425,2.94117647 9.19671622,3.79579938 7.48051587,5.50533749 C5.81771755,7.16168087 4.90196078,9.36390344 4.90196078,11.7063224 C4.90196078,12.548085 5.02206645,13.3711418 5.25073667,14.1578586 C6.8805744,14.3038031 8.35666124,15.2699791 9.12717622,16.8052217 L9.12717622,16.8052217 L11.8337592,22.1973739 C13.615783,20.902969 16.1345786,21.0559282 17.7421166,22.6571283 L17.7421166,22.6571283 L23.005933,27.9005108 L22.9754176,27.9309077 C23.7847615,28.7742292 24.4626543,29.7125413 25,30.7189542 C25.5373457,29.7125413 26.2152385,28.7742292 27.0245824,27.9309077 L27.0245824,27.9309077 L26.994067,27.9005108 L32.2579812,22.6571283 C33.1191622,21.7992904 34.2640783,21.3268706 35.4819575,21.3268706 C36.4604078,21.3268706 37.3915201,21.6323992 38.1664364,22.1971791 L38.1664364,22.1971791 L40.8728238,16.8052217 C41.6434366,15.2699791 43.1193278,14.3036083 44.7492633,14.1577612 C44.9779336,13.3710444 45.0980392,12.548085 45.0980392,11.7064198 C45.0980392,9.36400087 44.1822825,7.1617783 42.5194841,5.50543492 Z" id="Combined-Shape" fill="#4C4C78" fill-rule="nonzero"></path>
            </g>
        </g>
    </g>
</svg>