<?xml version="1.0" standalone="no"?>
<!DOCTYPE svg PUBLIC "-//W3C//DTD SVG 20010904//EN"
 "http://www.w3.org/TR/2001/REC-SVG-20010904/DTD/svg10.dtd">
<svg version="1.0" xmlns="http://www.w3.org/2000/svg"
 width="640.000000pt" height="640.000000pt" viewBox="0 0 640.000000 640.000000"
 preserveAspectRatio="xMidYMid meet">
<metadata>
Created by potrace 1.11, written by Peter Selinger 2001-2013
</metadata>
<g transform="translate(0.000000,640.000000) scale(0.100000,-0.100000)"
fill="#000000" stroke="none">
<path d="M1606 5802 c-2 -1 -36 -5 -77 -7 -41 -3 -85 -7 -99 -10 -14 -2 -38
-7 -55 -10 -52 -9 -74 -14 -153 -35 -42 -11 -86 -24 -97 -29 -11 -5 -36 -15
-55 -22 -98 -35 -334 -168 -396 -224 -7 -5 -36 -30 -65 -55 -53 -45 -141 -135
-196 -200 -53 -62 -143 -197 -136 -204 3 -3 1 -6 -5 -6 -7 0 -12 -5 -12 -10 0
-6 -10 -27 -23 -48 -13 -20 -36 -68 -51 -107 -16 -38 -34 -83 -41 -100 -17
-40 -51 -167 -64 -235 -6 -30 -13 -68 -17 -85 -13 -67 -13 -324 1 -428 8 -59
16 -111 19 -115 2 -4 7 -25 10 -47 15 -93 141 -412 168 -423 4 -2 8 -9 8 -15
0 -19 133 -207 153 -215 4 -2 7 -8 7 -14 0 -18 2435 -2448 2453 -2448 9 0 17
-3 17 -8 0 -9 68 -39 135 -60 28 -8 88 -15 135 -16 126 -1 228 32 324 104 61
46 2396 2384 2452 2455 21 28 42 52 47 53 4 2 7 8 7 13 0 10 34 62 56 85 35
39 165 337 189 434 41 164 50 243 50 420 0 165 -11 271 -39 378 -3 12 -8 32
-11 44 -21 97 -97 277 -166 394 -90 153 -240 330 -355 419 -21 17 -46 37 -54
45 -22 20 -109 80 -117 80 -4 0 -14 6 -22 14 -17 15 -142 80 -221 114 -86 38
-254 88 -328 97 -20 3 -48 7 -62 10 -14 3 -59 8 -100 10 -41 3 -87 7 -102 9
-16 2 -28 0 -28 -3 0 -3 -31 -6 -70 -5 -61 1 -162 -11 -266 -30 -47 -9 -205
-55 -239 -71 -16 -7 -59 -26 -95 -41 -36 -15 -72 -33 -80 -39 -8 -6 -28 -17
-45 -25 -16 -8 -32 -17 -35 -20 -3 -3 -30 -21 -60 -40 -30 -19 -60 -39 -66
-45 -7 -5 -34 -27 -60 -48 -27 -21 -150 -139 -274 -262 l-225 -224 -230 229
c-193 193 -264 256 -400 357 -58 44 -273 146 -380 182 -102 34 -269 68 -365
76 -90 7 -191 11 -194 7z m169 -1087 c158 -36 289 -137 358 -275 17 -36 32
-68 33 -72 1 -5 3 -10 4 -13 1 -3 4 -9 5 -15 1 -5 3 -11 5 -12 3 -4 9 -65 13
-128 12 -178 -111 -390 -273 -472 -25 -13 -47 -26 -50 -29 -6 -7 -92 -31 -123
-34 -12 -1 -24 -4 -27 -5 -20 -10 -159 4 -211 20 -94 30 -141 56 -209 118
-111 101 -172 234 -173 381 0 47 2 100 5 116 20 102 80 210 162 288 51 49 185
122 240 131 16 3 30 7 32 8 9 10 157 5 209 -7z"/>
</g>
</svg>
